<svg width="20" height="20" viewBox="0 0 20 20" fill="none" xmlns="http://www.w3.org/2000/svg">
<path d="M17.3929 2.00146H5.23293C4.87706 1.98498 4.52895 2.10879 4.26341 2.34627C3.99788 2.58376 3.83612 2.91596 3.81293 3.27145V5.86144C3.81293 5.96753 3.85507 6.06926 3.93008 6.14428C4.0051 6.21929 4.10683 6.26144 4.21292 6.26144C4.31901 6.26144 4.42076 6.21929 4.49577 6.14428C4.57079 6.06926 4.61293 5.96753 4.61293 5.86144V3.32143C4.63745 3.17835 4.71474 3.04968 4.82953 2.96081C4.94432 2.87194 5.08826 2.82935 5.23293 2.84145H17.3929C17.5412 2.8244 17.6902 2.86617 17.808 2.95779C17.9258 3.0494 18.003 3.18356 18.0229 3.33144V13.0714C18.0029 13.2201 17.9261 13.3552 17.8087 13.4484C17.6912 13.5416 17.5422 13.5857 17.3929 13.5714H5.23293C5.08528 13.583 4.93881 13.5377 4.82353 13.4447C4.70825 13.3517 4.6329 13.2182 4.61293 13.0714V11.6814C4.61293 11.5754 4.57079 11.4736 4.49577 11.3986C4.42076 11.3236 4.31901 11.2815 4.21292 11.2815C4.10683 11.2815 4.0051 11.3236 3.93008 11.3986C3.85507 11.4736 3.81293 11.5754 3.81293 11.6814V13.0714C3.83106 13.4305 3.99062 13.7677 4.25671 14.0095C4.52281 14.2512 4.87379 14.3778 5.23293 14.3614H10.8729V16.7414H7.17293C7.11579 16.7323 7.05735 16.7357 7.00165 16.7514C6.94595 16.767 6.8943 16.7946 6.85028 16.8321C6.80626 16.8697 6.77091 16.9163 6.74667 16.9689C6.72243 17.0214 6.70988 17.0786 6.70988 17.1364C6.70988 17.1943 6.72243 17.2515 6.74667 17.304C6.77091 17.3565 6.80626 17.4032 6.85028 17.4408C6.8943 17.4783 6.94595 17.5059 7.00165 17.5215C7.05735 17.5372 7.11579 17.5406 7.17293 17.5315H15.3129C15.3701 17.5406 15.4285 17.5372 15.4842 17.5215C15.5399 17.5059 15.5916 17.4783 15.6356 17.4408C15.6796 17.4032 15.7149 17.3565 15.7392 17.304C15.7634 17.2515 15.776 17.1943 15.776 17.1364C15.776 17.0786 15.7634 17.0214 15.7392 16.9689C15.7149 16.9163 15.6796 16.8697 15.6356 16.8321C15.5916 16.7946 15.5399 16.767 15.4842 16.7514C15.4285 16.7357 15.3701 16.7323 15.3129 16.7414H11.6729V14.3614H17.3929C17.7531 14.3778 18.1052 14.2516 18.3728 14.0101C18.6405 13.7686 18.8022 13.4314 18.8229 13.0714V3.33144C18.8178 3.14976 18.7766 2.97091 18.7016 2.80532C18.6267 2.63973 18.5196 2.49072 18.3865 2.36693C18.2534 2.24315 18.097 2.14709 17.9264 2.08434C17.7559 2.02159 17.5745 1.99342 17.3929 2.00146Z" fill="white"/>
<path d="M9.33287 7.07135H15.7229C15.78 7.08047 15.8384 7.07708 15.8941 7.06143C15.9499 7.04577 16.0015 7.01823 16.0455 6.98068C16.0895 6.94313 16.1249 6.89647 16.1491 6.84393C16.1734 6.79139 16.1859 6.73422 16.1859 6.67636C16.1859 6.6185 16.1734 6.56132 16.1491 6.50878C16.1249 6.45625 16.0895 6.40959 16.0455 6.37204C16.0015 6.33448 15.9499 6.30694 15.8941 6.29129C15.8384 6.27563 15.78 6.27225 15.7229 6.28137H9.33287C9.27573 6.27225 9.21729 6.27563 9.16159 6.29129C9.10589 6.30694 9.05424 6.33448 9.01022 6.37204C8.9662 6.40959 8.93086 6.45625 8.90662 6.50878C8.88238 6.56132 8.86981 6.6185 8.86981 6.67636C8.86981 6.73422 8.88238 6.79139 8.90662 6.84393C8.93086 6.89647 8.9662 6.94313 9.01022 6.98068C9.05424 7.01823 9.10589 7.04577 9.16159 7.06143C9.21729 7.07708 9.27573 7.08047 9.33287 7.07135Z" fill="white"/>
<path d="M9.33287 8.96127H15.7229C15.78 8.97039 15.8384 8.96701 15.8941 8.95135C15.9499 8.9357 16.0015 8.90812 16.0455 8.87057C16.0895 8.83302 16.1249 8.78636 16.1491 8.73382C16.1734 8.68128 16.1859 8.62411 16.1859 8.56625C16.1859 8.50839 16.1734 8.45122 16.1491 8.39868C16.1249 8.34614 16.0895 8.29951 16.0455 8.26196C16.0015 8.22441 15.9499 8.19683 15.8941 8.18118C15.8384 8.16552 15.78 8.16214 15.7229 8.17126H9.33287C9.27573 8.16214 9.21729 8.16552 9.16159 8.18118C9.10589 8.19683 9.05424 8.22441 9.01022 8.26196C8.9662 8.29951 8.93086 8.34614 8.90662 8.39868C8.88238 8.45122 8.86981 8.50839 8.86981 8.56625C8.86981 8.62411 8.88238 8.68128 8.90662 8.73382C8.93086 8.78636 8.9662 8.83302 9.01022 8.87057C9.05424 8.90812 9.10589 8.9357 9.16159 8.95135C9.21729 8.96701 9.27573 8.97039 9.33287 8.96127Z" fill="white"/>
<path d="M9.33281 10.9614H15.7228C15.8289 10.9614 15.9306 10.9193 16.0056 10.8442C16.0807 10.7692 16.1228 10.6675 16.1228 10.5614C16.1228 10.4553 16.0807 10.3535 16.0056 10.2785C15.9306 10.2035 15.8289 10.1614 15.7228 10.1614H9.33281C9.22672 10.1614 9.12497 10.2035 9.04996 10.2785C8.97494 10.3535 8.9328 10.4553 8.9328 10.5614C8.9328 10.6675 8.97494 10.7692 9.04996 10.8442C9.12497 10.9193 9.22672 10.9614 9.33281 10.9614Z" fill="white"/>
<path d="M4.17283 9.59146C4.27636 9.5897 4.37579 9.55063 4.45283 9.48145L8.76283 5.16144C8.80033 5.12508 8.83014 5.08158 8.8505 5.03348C8.87086 4.98538 8.88136 4.93367 8.88136 4.88144C8.88136 4.82921 8.87086 4.77753 8.8505 4.72943C8.83014 4.68133 8.80033 4.6378 8.76283 4.60144C8.68897 4.52607 8.58834 4.48295 8.48283 4.48145C8.37732 4.48295 8.27668 4.52607 8.20283 4.60144L4.13284 8.68146L1.63284 6.90146C1.59021 6.87046 1.54187 6.84819 1.49061 6.83594C1.43935 6.82368 1.38616 6.82168 1.33412 6.83005C1.28208 6.83841 1.23221 6.85697 1.18737 6.88467C1.14253 6.91238 1.10359 6.94866 1.07282 6.99146C1.01276 7.07841 0.988612 7.18518 1.00538 7.28952C1.02215 7.39386 1.07856 7.4877 1.16284 7.55145L3.94283 9.55145C4.01266 9.59071 4.09385 9.60484 4.17283 9.59146Z" fill="white"/>
</svg>
