<svg width="18" height="16" viewBox="0 0 18 16" fill="none" xmlns="http://www.w3.org/2000/svg">
<path d="M16.3927 0.00145619H4.23274C3.87688 -0.0150163 3.52877 0.108787 3.26323 0.346274C2.99769 0.583761 2.83594 0.915957 2.81274 1.27145V3.86144C2.81274 3.96753 2.85489 4.06926 2.9299 4.14428C3.00492 4.21929 3.10665 4.26144 3.21274 4.26144C3.31882 4.26144 3.42058 4.21929 3.49559 4.14428C3.5706 4.06926 3.61275 3.96753 3.61275 3.86144V1.32143C3.63727 1.17835 3.71456 1.04968 3.82935 0.960807C3.94414 0.871938 4.08808 0.829354 4.23274 0.841453H16.3927C16.541 0.824402 16.69 0.866168 16.8078 0.957786C16.9256 1.0494 17.0028 1.18356 17.0228 1.33144V11.0714C17.0027 11.2201 16.9259 11.3552 16.8085 11.4484C16.691 11.5416 16.542 11.5857 16.3927 11.5714H4.23274C4.0851 11.583 3.93863 11.5377 3.82335 11.4447C3.70807 11.3517 3.63272 11.2182 3.61275 11.0714V9.68145C3.61275 9.57536 3.5706 9.47363 3.49559 9.39861C3.42058 9.3236 3.31882 9.28146 3.21274 9.28146C3.10665 9.28146 3.00492 9.3236 2.9299 9.39861C2.85489 9.47363 2.81274 9.57536 2.81274 9.68145V11.0714C2.83088 11.4305 2.99044 11.7677 3.25653 12.0095C3.52263 12.2512 3.87361 12.3778 4.23274 12.3614H9.87274V14.7414H6.17274C6.11561 14.7323 6.05717 14.7357 6.00146 14.7514C5.94576 14.767 5.89412 14.7946 5.8501 14.8321C5.80608 14.8697 5.77073 14.9163 5.74649 14.9689C5.72225 15.0214 5.7097 15.0786 5.7097 15.1364C5.7097 15.1943 5.72225 15.2515 5.74649 15.304C5.77073 15.3565 5.80608 15.4032 5.8501 15.4408C5.89412 15.4783 5.94576 15.5059 6.00146 15.5215C6.05717 15.5372 6.11561 15.5406 6.17274 15.5315H14.3127C14.3699 15.5406 14.4283 15.5372 14.484 15.5215C14.5397 15.5059 14.5914 15.4783 14.6354 15.4408C14.6794 15.4032 14.7148 15.3565 14.739 15.304C14.7632 15.2515 14.7758 15.1943 14.7758 15.1364C14.7758 15.0786 14.7632 15.0214 14.739 14.9689C14.7148 14.9163 14.6794 14.8697 14.6354 14.8321C14.5914 14.7946 14.5397 14.767 14.484 14.7514C14.4283 14.7357 14.3699 14.7323 14.3127 14.7414H10.6727V12.3614H16.3927C16.7529 12.3778 17.105 12.2516 17.3727 12.0101C17.6404 11.7686 17.8021 11.4314 17.8227 11.0714V1.33144C17.8176 1.14976 17.7764 0.97091 17.7015 0.80532C17.6265 0.639729 17.5194 0.490716 17.3863 0.366935C17.2532 0.243153 17.0968 0.147089 16.9263 0.0843419C16.7557 0.0215946 16.5743 -0.00657622 16.3927 0.00145619Z" fill="#131318"/>
<path d="M8.33269 5.07135H14.7227C14.7798 5.08047 14.8383 5.07708 14.894 5.06143C14.9497 5.04577 15.0013 5.01823 15.0453 4.98068C15.0894 4.94313 15.1247 4.89647 15.1489 4.84393C15.1732 4.79139 15.1857 4.73422 15.1857 4.67636C15.1857 4.6185 15.1732 4.56132 15.1489 4.50878C15.1247 4.45625 15.0894 4.40959 15.0453 4.37204C15.0013 4.33448 14.9497 4.30694 14.894 4.29129C14.8383 4.27563 14.7798 4.27225 14.7227 4.28137H8.33269C8.27555 4.27225 8.21711 4.27563 8.16141 4.29129C8.1057 4.30694 8.05406 4.33448 8.01004 4.37204C7.96602 4.40959 7.93067 4.45625 7.90643 4.50878C7.88219 4.56132 7.86963 4.6185 7.86963 4.67636C7.86963 4.73422 7.88219 4.79139 7.90643 4.84393C7.93067 4.89647 7.96602 4.94313 8.01004 4.98068C8.05406 5.01823 8.1057 5.04577 8.16141 5.06143C8.21711 5.07708 8.27555 5.08047 8.33269 5.07135V5.07135Z" fill="#131318"/>
<path d="M8.33269 6.96127H14.7227C14.7798 6.97039 14.8383 6.96701 14.894 6.95135C14.9497 6.9357 15.0013 6.90812 15.0453 6.87057C15.0894 6.83302 15.1247 6.78636 15.1489 6.73382C15.1732 6.68128 15.1857 6.62411 15.1857 6.56625C15.1857 6.50839 15.1732 6.45122 15.1489 6.39868C15.1247 6.34614 15.0894 6.29951 15.0453 6.26196C15.0013 6.22441 14.9497 6.19683 14.894 6.18118C14.8383 6.16552 14.7798 6.16214 14.7227 6.17126H8.33269C8.27555 6.16214 8.21711 6.16552 8.16141 6.18118C8.1057 6.19683 8.05406 6.22441 8.01004 6.26196C7.96602 6.29951 7.93067 6.34614 7.90643 6.39868C7.88219 6.45122 7.86963 6.50839 7.86963 6.56625C7.86963 6.62411 7.88219 6.68128 7.90643 6.73382C7.93067 6.78636 7.96602 6.83302 8.01004 6.87057C8.05406 6.90812 8.1057 6.9357 8.16141 6.95135C8.21711 6.96701 8.27555 6.97039 8.33269 6.96127V6.96127Z" fill="#131318"/>
<path d="M8.33263 8.9614H14.7226C14.8287 8.9614 14.9304 8.91925 15.0055 8.84424C15.0805 8.76922 15.1226 8.66749 15.1226 8.5614C15.1226 8.45531 15.0805 8.35355 15.0055 8.27853C14.9304 8.20352 14.8287 8.16138 14.7226 8.16138H8.33263C8.22654 8.16138 8.12479 8.20352 8.04977 8.27853C7.97476 8.35355 7.93262 8.45531 7.93262 8.5614C7.93262 8.66749 7.97476 8.76922 8.04977 8.84424C8.12479 8.91925 8.22654 8.9614 8.33263 8.9614V8.9614Z" fill="#131318"/>
<path d="M3.17265 7.59146C3.27618 7.5897 3.3756 7.55063 3.45265 7.48145L7.76264 3.16144C7.80014 3.12508 7.82996 3.08158 7.85032 3.03348C7.87068 2.98538 7.88117 2.93367 7.88117 2.88144C7.88117 2.82921 7.87068 2.77753 7.85032 2.72943C7.82996 2.68133 7.80014 2.6378 7.76264 2.60144C7.68879 2.52607 7.58815 2.48295 7.48265 2.48145V2.48145C7.37714 2.48295 7.2765 2.52607 7.20265 2.60144L3.13265 6.68146L0.632654 4.90146C0.590025 4.87046 0.54169 4.84819 0.490427 4.83594C0.439164 4.82368 0.385973 4.82168 0.333933 4.83005C0.281893 4.83841 0.23203 4.85697 0.187189 4.88467C0.142348 4.91238 0.103412 4.94866 0.0726414 4.99146C0.0125817 5.07841 -0.0115712 5.18518 0.00519751 5.28952C0.0219662 5.39386 0.0783729 5.4877 0.162653 5.55145L2.94265 7.55145C3.01248 7.59072 3.09366 7.60484 3.17265 7.59146Z" fill="#131318"/>
</svg>
