<svg width="16" height="15" viewBox="0 0 16 15" fill="none" xmlns="http://www.w3.org/2000/svg">
<path d="M15.1356 1.66313H11.9772V0.298945C11.9772 0.133728 11.8433 0 11.6782 0C11.5132 0 11.3793 0.133728 11.3793 0.298945V1.66313H3.71336V0.298945C3.71336 0.133728 3.57963 0 3.41441 0C3.2492 0 3.11547 0.133728 3.11547 0.298945V1.66313H0.298212C0.132996 1.66313 -0.000732422 1.79686 -0.000732422 1.96207V14.4061C-0.000732422 14.5712 0.132996 14.7051 0.298212 14.7051H15.1356C15.3007 14.7051 15.4346 14.5712 15.4346 14.4061V1.96207C15.4346 1.79686 15.3007 1.66313 15.1356 1.66313ZM14.8367 14.1072H0.597157V2.26102H3.11547V3.16602C3.11547 3.33124 3.2492 3.46497 3.41441 3.46497C3.57963 3.46497 3.71336 3.33124 3.71336 3.16602V2.26102H11.3793V3.16602C11.3793 3.33124 11.5132 3.46497 11.6782 3.46497C11.8433 3.46497 11.9772 3.33124 11.9772 3.16602V2.26102H14.8367V14.1072Z" fill="#353442"/>
<path d="M11.8817 10.211L10.8731 9.20197C10.7563 9.08518 10.5672 9.08518 10.4504 9.20197C10.3336 9.31856 10.3336 9.50789 10.4504 9.62468L11.459 10.6337L10.4504 11.6428C10.3336 11.7595 10.3336 11.9489 10.4504 12.0655C10.5088 12.1239 10.5853 12.153 10.6618 12.153C10.7384 12.153 10.8149 12.1239 10.8733 12.0655L11.8819 11.0564L12.8906 12.0655C12.949 12.1239 13.0255 12.153 13.102 12.153C13.1786 12.153 13.2551 12.1239 13.3135 12.0655C13.4303 11.9489 13.4303 11.7595 13.3135 11.6428L12.3048 10.6337L13.3135 9.62468C13.4303 9.50789 13.4303 9.31856 13.3135 9.20197C13.1967 9.08518 13.0076 9.08518 12.8908 9.20197L11.8817 10.211Z" fill="#353442"/>
<path d="M4.51761 5.07629H2.67431C2.50909 5.07629 2.37537 5.21002 2.37537 5.37524V7.21813C2.37537 7.38335 2.50909 7.51708 2.67431 7.51708H4.51761C4.68282 7.51708 4.81655 7.38315 4.81655 7.21813V5.37524C4.81655 5.21002 4.68282 5.07629 4.51761 5.07629ZM4.21866 6.91919H2.97326V5.67418H4.21866V6.91919Z" fill="#353442"/>
<path d="M8.71745 5.07629H6.87475C6.70953 5.07629 6.57581 5.21002 6.57581 5.37524V7.21813C6.57581 7.38335 6.70953 7.51708 6.87475 7.51708H8.71745C8.88246 7.51708 9.01639 7.38315 9.01639 7.21813V5.37524C9.01639 5.21002 8.88266 5.07629 8.71745 5.07629ZM8.4185 6.91919H7.1737V5.67418H8.4185V6.91919Z" fill="#353442"/>
<path d="M4.51761 9.31531H2.67431C2.50909 9.31531 2.37537 9.44923 2.37537 9.61425V11.4571C2.37537 11.6222 2.50909 11.7561 2.67431 11.7561H4.51761C4.68282 11.7561 4.81655 11.6222 4.81655 11.4571V9.61425C4.81655 9.44923 4.68282 9.31531 4.51761 9.31531ZM4.21866 11.1582H2.97326V9.9132H4.21866V11.1582Z" fill="#353442"/>
<path d="M8.71745 9.31531H6.87475C6.70953 9.31531 6.57581 9.44923 6.57581 9.61425V11.4571C6.57581 11.6222 6.70953 11.7561 6.87475 11.7561H8.71745C8.88246 11.7561 9.01639 11.6222 9.01639 11.4571V9.61425C9.01639 9.44923 8.88266 9.31531 8.71745 9.31531ZM8.4185 11.1582H7.1737V9.9132H8.4185V11.1582Z" fill="#353442"/>
<path d="M10.8826 5.07629C10.7175 5.07629 10.5836 5.21002 10.5836 5.37524V7.21813C10.5836 7.38335 10.7175 7.51708 10.8826 7.51708H12.7259C12.8909 7.51708 13.0248 7.38315 13.0248 7.21813V5.37524C13.0248 5.21002 12.8909 5.07629 12.7259 5.07629H10.8826ZM12.4269 6.91919H11.1815V5.67418H12.4269V6.91919Z" fill="#353442"/>
</svg>
