<svg width="17" height="17" viewBox="0 0 17 17" fill="none" xmlns="http://www.w3.org/2000/svg">
<g clip-path="url(#clip0_1629_2495)">
<path fill-rule="evenodd" clip-rule="evenodd" d="M8.49402 1.58997C7.12655 1.58997 5.78978 1.99547 4.65277 2.7552C3.51576 3.51493 2.62957 4.59475 2.10626 5.85813C1.58295 7.12151 1.44603 8.51168 1.71281 9.85288C1.97959 11.1941 2.63809 12.4261 3.60504 13.393C4.57199 14.36 5.80396 15.0185 7.14516 15.2852C8.48636 15.552 9.87655 15.4151 11.1399 14.8918C12.4033 14.3685 13.4831 13.4823 14.2429 12.3453C15.0026 11.2083 15.4081 9.87151 15.4081 8.50404C15.4081 6.67031 14.6796 4.91169 13.383 3.61505C12.0864 2.31841 10.3277 1.58997 8.49402 1.58997ZM8.49402 14.2874C7.34777 14.2874 6.22728 13.9474 5.27434 13.3104C4.3214 12.6733 3.57886 11.768 3.14067 10.7088C2.70247 9.64957 2.58833 8.4842 2.81269 7.36011C3.03704 6.23603 3.5898 5.20374 4.40102 4.39392C5.21225 3.5841 6.24546 3.03312 7.36993 2.81072C8.4944 2.58831 9.65959 2.70448 10.718 3.1445C11.7764 3.58452 12.6806 4.32862 13.3159 5.28266C13.9513 6.2367 14.2894 7.35778 14.2874 8.50404C14.2848 10.0388 13.6732 11.5098 12.5871 12.5941C11.5009 13.6784 10.0288 14.2874 8.49402 14.2874Z" fill="#616167"/>
<path d="M10.3861 7.23422C10.3307 7.17607 10.2639 7.13004 10.1898 7.09904C10.1158 7.06804 10.0361 7.05275 9.95582 7.05413C9.87554 7.05275 9.79585 7.06804 9.72179 7.09904C9.64773 7.13004 9.58091 7.17607 9.52555 7.23422L8.52497 8.23481V3.69216C8.52497 3.53028 8.46066 3.37504 8.3462 3.26057C8.23173 3.14611 8.07648 3.08179 7.91461 3.08179C7.75273 3.08179 7.5975 3.14611 7.48303 3.26057C7.36857 3.37504 7.30426 3.53028 7.30426 3.69216V9.69569C7.29864 9.75225 7.29864 9.80922 7.30426 9.86578C7.29992 9.88892 7.29992 9.91268 7.30426 9.93583L7.35428 10.0359C7.41397 10.1136 7.48887 10.1783 7.57441 10.226H7.69449H7.81456C7.87074 10.2368 7.92847 10.2368 7.98466 10.226H8.04469L8.15475 10.176C8.18929 10.1548 8.21979 10.1278 8.2448 10.0959L10.306 8.03471C10.3635 7.97877 10.4092 7.91187 10.4404 7.83797C10.4716 7.76407 10.4877 7.68468 10.4877 7.60447C10.4877 7.52425 10.4716 7.44483 10.4404 7.37093C10.4092 7.29703 10.3635 7.23013 10.306 7.17419L10.3861 7.23422Z" fill="#616167"/>
<path fill-rule="evenodd" clip-rule="evenodd" d="M8.49499 0C6.81286 0 5.16852 0.498797 3.76988 1.43334C2.37123 2.36788 1.28113 3.69619 0.637402 5.25028C-0.00632117 6.80437 -0.174753 8.51443 0.153414 10.1642C0.481581 11.8141 1.2916 13.3295 2.48105 14.5189C3.67049 15.7084 5.18594 16.5184 6.83575 16.8466C8.48556 17.1747 10.1956 17.0063 11.7497 16.3626C13.3038 15.7189 14.6321 14.6288 15.5666 13.2301C16.5012 11.8315 17 10.1871 17 8.505C17 6.24934 16.1039 4.08606 14.5089 2.49106C12.9139 0.896061 10.7507 0 8.49499 0ZM8.49499 15.8793C7.03408 15.8793 5.60601 15.446 4.39144 14.6342C3.17688 13.8223 2.2304 12.6684 1.67179 11.3185C1.11319 9.96865 0.967535 8.48338 1.25327 7.05069C1.53901 5.61799 2.24331 4.30225 3.27703 3.26993C4.31075 2.23761 5.62744 1.53511 7.06052 1.25132C8.4936 0.96752 9.97867 1.1152 11.3278 1.67564C12.6769 2.23608 13.8295 3.18408 14.6397 4.39974C15.4499 5.61541 15.8813 7.04409 15.8793 8.505C15.8767 10.4617 15.0975 12.3374 13.713 13.72C12.3284 15.1027 10.4517 15.8793 8.49499 15.8793Z" fill="#616167"/>
</g>
<defs>
<clipPath id="clip0_1629_2495">
<rect width="17" height="17" fill="white"/>
</clipPath>
</defs>
</svg>
