<svg width="18" height="12" viewBox="0 0 18 12" fill="none" xmlns="http://www.w3.org/2000/svg">
<path d="M17.1649 10.9784C17.1743 10.9495 17.1806 10.919 17.1806 10.8869V0.298749C17.1806 0.266462 17.1743 0.23577 17.1647 0.206673C17.1633 0.202687 17.1625 0.1987 17.1609 0.194714C17.1482 0.160634 17.1294 0.129943 17.1059 0.103037C17.1043 0.101244 17.1041 0.0990515 17.1025 0.0972578C17.1015 0.0962613 17.1003 0.0958625 17.0993 0.094866C17.0742 0.06816 17.0445 0.0466358 17.0112 0.0304926C17.0087 0.0292969 17.0067 0.0277024 17.0041 0.0265066C16.9726 0.0123564 16.9383 0.00438461 16.9022 0.00199303C16.8986 0.00179373 16.8953 0.000996325 16.8917 0.000996325C16.8883 0.000797027 16.8853 0 16.8819 0H0.299269C0.295881 0 0.292692 0.000797027 0.289304 0.000996325C0.286115 0.00119562 0.282926 0.00179373 0.279738 0.00199303C0.243266 0.00438461 0.208389 0.0125559 0.176501 0.0269053C0.174508 0.0277025 0.172914 0.0290975 0.170921 0.0298947C0.13704 0.0460379 0.106946 0.0679606 0.0816351 0.0950652C0.0806386 0.0960617 0.0794428 0.0962613 0.0784463 0.0972578C0.0768519 0.0988522 0.0766527 0.101044 0.0750583 0.102838C0.0515411 0.129743 0.0326077 0.160634 0.0198526 0.194714C0.0182582 0.1987 0.017461 0.202687 0.0160659 0.206872C0.00649961 0.235969 0.00012207 0.266661 0.00012207 0.298948V10.8873C0.00012207 10.92 0.00669888 10.9511 0.0164645 10.9805C0.0178596 10.9845 0.0186568 10.9883 0.0200519 10.9923C0.0330063 11.0266 0.0521389 11.0575 0.0758554 11.0844C0.0772505 11.086 0.0776492 11.088 0.0790442 11.0896C0.08024 11.091 0.0818344 11.0918 0.0832295 11.0932C0.0929951 11.1033 0.103757 11.1123 0.114918 11.1211C0.1199 11.1248 0.124285 11.1294 0.129467 11.133C0.14262 11.1422 0.156771 11.1496 0.171319 11.1563C0.174907 11.1579 0.178096 11.1605 0.181683 11.1619C0.217756 11.1773 0.257416 11.186 0.29907 11.186H16.8815C16.9232 11.186 16.9628 11.1775 16.9989 11.1619C17.0045 11.1595 17.0096 11.1559 17.015 11.1531C17.0274 11.147 17.0397 11.1406 17.0511 11.1328C17.0571 11.1286 17.0625 11.1232 17.0682 11.1187C17.0784 11.1105 17.0884 11.1023 17.0971 11.093C17.0987 11.0914 17.1005 11.0902 17.1021 11.0886C17.1037 11.0868 17.1041 11.0844 17.1057 11.0826C17.129 11.0559 17.1478 11.0252 17.1605 10.9913C17.1625 10.9869 17.1635 10.9827 17.1649 10.9784ZM0.598217 0.976762L5.62991 5.57278L0.598217 10.2055V0.976762ZM10.9111 5.34758C10.8904 5.36113 10.8685 5.37249 10.8511 5.39162C10.8446 5.3988 10.8424 5.40816 10.8366 5.41574L8.59048 7.46732L1.06976 0.597696H16.1112L10.9111 5.34758ZM6.07314 5.97756L8.38879 8.09271C8.44599 8.14493 8.51814 8.17104 8.59048 8.17104C8.66283 8.17104 8.73497 8.14493 8.79197 8.09271L11.0789 6.00387L16.1098 10.5881H1.06537L6.07314 5.97756ZM11.5224 5.59889L16.5828 0.976762V10.2103L11.5224 5.59889Z" fill="#131318"/>
</svg>
