<svg width="20" height="20" viewBox="0 0 20 20" fill="none" xmlns="http://www.w3.org/2000/svg">
<path fill-rule="evenodd" clip-rule="evenodd" d="M10.8276 3.37922L10.6637 3.13563C10.3467 2.66449 9.65335 2.66449 9.33629 3.13563L9.17237 3.37922C8.45405 4.44663 7.16631 4.98003 5.9036 4.73319L5.61545 4.67685C5.05811 4.5679 4.56787 5.05814 4.67682 5.61548L4.73315 5.90363C4.98 7.16633 4.4466 8.45408 3.37919 9.1724L3.1356 9.33632C2.66446 9.65338 2.66446 10.3467 3.1356 10.6637L3.37919 10.8277C4.44659 11.546 4.98 12.8337 4.73315 14.0964L4.67682 14.3846C4.56787 14.9419 5.05811 15.4322 5.61545 15.3232L5.9036 15.2669C7.1663 15.02 8.45404 15.5534 9.17237 16.6208L9.33629 16.8644C9.65335 17.3356 10.3467 17.3356 10.6637 16.8644L10.8276 16.6208C11.546 15.5534 12.8337 15.02 14.0964 15.2669L14.3846 15.3232C14.9419 15.4322 15.4321 14.9419 15.3232 14.3846L15.2668 14.0964C15.02 12.8337 15.5534 11.546 16.6208 10.8277L16.8644 10.6637C17.3355 10.3467 17.3355 9.65338 16.8644 9.33632L16.6208 9.1724C15.5534 8.45408 15.02 7.16634 15.2668 5.90364L15.3232 5.61548C15.4321 5.05814 14.9419 4.5679 14.3846 4.67685L14.0964 4.73319C12.8337 4.98003 11.546 4.44663 10.8276 3.37922ZM11.6593 2.46566C10.8666 1.28782 9.13337 1.28781 8.34073 2.46566L8.17681 2.70925C7.72786 3.37638 6.92302 3.70975 6.13383 3.55548L5.84567 3.49915C4.45233 3.22677 3.22674 4.45236 3.49912 5.8457L3.55545 6.13386C3.70972 6.92305 3.37635 7.72789 2.70922 8.17684L2.46563 8.34076C1.28778 9.1334 1.28778 10.8667 2.46563 11.6593L2.70922 11.8232C3.37635 12.2722 3.70972 13.077 3.55545 13.8662L3.49912 14.1544C3.22674 15.5477 4.45233 16.7733 5.84567 16.5009L6.13383 16.4446C6.92302 16.2903 7.72786 16.6237 8.17681 17.2908L8.34073 17.5344C9.13337 18.7122 10.8666 18.7122 11.6593 17.5344L11.8232 17.2908C12.2721 16.6237 13.077 16.2903 13.8662 16.4446L14.1543 16.5009C15.5477 16.7733 16.7733 15.5477 16.5009 14.1544L16.4446 13.8662C16.2903 13.077 16.6237 12.2722 17.2908 11.8232L17.5344 11.6593C18.7122 10.8667 18.7122 9.1334 17.5344 8.34076L17.2908 8.17684C16.6237 7.72789 16.2903 6.92305 16.4446 6.13386L16.5009 5.8457C16.7733 4.45236 15.5477 3.22677 14.1543 3.49915L13.8662 3.55548C13.077 3.70975 12.2721 3.37638 11.8232 2.70925L11.6593 2.46566Z" fill="white"/>
<path d="M7 8.49806C7 7.98968 7.10513 7.6129 7.3154 7.36774C7.52812 7.12258 7.8154 7 8.17726 7C8.55134 7 8.84352 7.12258 9.05379 7.36774C9.2665 7.61032 9.37286 7.9871 9.37286 8.49806C9.37286 9.00645 9.2665 9.38323 9.05379 9.62839C8.84352 9.87355 8.55746 9.99613 8.1956 9.99613C7.82152 9.99613 7.52812 9.87484 7.3154 9.63226C7.10513 9.3871 7 9.00903 7 8.49806ZM7.80318 8.49032C7.80318 8.85935 7.84352 9.1071 7.92421 9.23355C7.98533 9.32645 8.06968 9.3729 8.17726 9.3729C8.28729 9.3729 8.37286 9.32645 8.43399 9.23355C8.51223 9.1071 8.55134 8.85935 8.55134 8.49032C8.55134 8.12129 8.51223 7.87484 8.43399 7.75097C8.37286 7.65548 8.28729 7.60774 8.17726 7.60774C8.06968 7.60774 7.98533 7.65419 7.92421 7.7471C7.84352 7.87355 7.80318 8.12129 7.80318 8.49032ZM8.9621 12.9884H8.19927L11.0636 7H11.8044L8.9621 12.9884ZM10.6271 11.4981C10.6271 10.9897 10.7323 10.6129 10.9425 10.3677C11.1553 10.1226 11.445 10 11.8117 10C12.1809 10 12.4707 10.1226 12.6809 10.3677C12.8936 10.6129 13 10.9897 13 11.4981C13 12.009 12.8936 12.3871 12.6809 12.6323C12.4707 12.8774 12.1846 13 11.8227 13C11.4487 13 11.1553 12.8774 10.9425 12.6323C10.7323 12.3871 10.6271 12.009 10.6271 11.4981ZM11.4303 11.4942C11.4303 11.8632 11.4707 12.1097 11.5513 12.2335C11.6125 12.329 11.6968 12.3768 11.8044 12.3768C11.9144 12.3768 11.9988 12.3303 12.0575 12.2374C12.1381 12.111 12.1785 11.8632 12.1785 11.4942C12.1785 11.1252 12.1394 10.8774 12.0611 10.751C12 10.6581 11.9144 10.6116 11.8044 10.6116C11.6944 10.6116 11.61 10.6581 11.5513 10.751C11.4707 10.8774 11.4303 11.1252 11.4303 11.4942Z" fill="white"/>
</svg>
