<svg width="15" height="16" viewBox="0 0 15 16" fill="none" xmlns="http://www.w3.org/2000/svg">
<path fill-rule="evenodd" clip-rule="evenodd" d="M3.80434 2.75714C3.81228 2.77266 3.82043 2.78817 3.82878 2.80368C3.86472 2.87035 3.9045 2.93687 3.94806 3.00297H3.94806C3.89437 2.9215 3.84642 2.83939 3.80434 2.75714ZM0.413052 6.60801C0.466148 6.691 0.559128 6.74596 0.66505 6.74596H1.35521L1.35521 6.74595H0.665049C0.559129 6.74595 0.466148 6.69099 0.413052 6.60801ZM1.48846 14.8495C1.53587 14.8811 1.59285 14.8996 1.65416 14.8996H12.9529C13.0354 14.8996 13.1101 14.8661 13.1642 14.812C13.1101 14.8661 13.0354 14.8996 12.9529 14.8996H1.65416C1.59285 14.8996 1.53587 14.8811 1.48846 14.8495ZM13.2518 6.74576H13.941C14.0235 6.74576 14.0982 6.71233 14.1523 6.65825C14.0982 6.71233 14.0235 6.74575 13.941 6.74575H13.2518V6.74576ZM10.9836 2.2625C10.9567 2.41509 10.8959 2.5835 10.7772 2.80348C10.8749 2.62235 10.9442 2.44013 10.9836 2.2625ZM10.9495 1.49995C10.9487 1.49222 10.9479 1.48442 10.9471 1.47655C10.9433 1.47249 10.9395 1.46845 10.9357 1.46443C10.9405 1.47619 10.9451 1.48803 10.9495 1.49995ZM0.66505 2.80368H3.60512C3.31357 2.20447 3.29075 1.56532 3.65811 1.08899C3.96934 0.688171 4.46927 0.528113 5.00037 0.564295C5.53157 0.600484 6.11362 0.831388 6.63731 1.23679C6.89709 1.4374 7.12204 1.66757 7.30326 1.91258C7.48363 1.66892 7.70811 1.4392 7.97068 1.23642C8.59675 0.751204 9.35049 0.49168 9.99788 0.574761C10.3895 0.624666 10.7231 0.798715 10.9471 1.08871C11.3154 1.56492 11.2928 2.20415 11.0009 2.80348H13.941C14.216 2.80348 14.4392 3.02635 14.4392 3.30172V6.44682C14.4392 6.72219 14.216 6.94506 13.941 6.94506H13.4511V14.6006C13.4511 14.8757 13.228 15.0989 12.9529 15.0989H1.65416C1.37879 15.0989 1.15592 14.8756 1.15592 14.6006V6.94526H0.66505C0.389765 6.94526 0.166809 6.7223 0.166809 6.44702V3.30192C0.166809 3.02663 0.389765 2.80368 0.66505 2.80368ZM7.92363 2.80368C8.05162 2.53884 8.27846 2.2578 8.58033 2.02473C9.02394 1.68099 9.52483 1.51872 9.87146 1.56325C10.0247 1.58279 10.1104 1.63597 10.1583 1.69814C10.2247 1.78399 10.2522 1.93615 10.1856 2.1581C10.126 2.3566 9.99754 2.58371 9.80468 2.80368H7.92363ZM7.66745 2.90405C7.75413 2.64536 7.92855 2.3721 8.16681 2.12702C7.95917 2.3406 7.80002 2.57559 7.70517 2.80368C7.69118 2.83732 7.67859 2.8708 7.66745 2.90405ZM8.33081 1.97179C8.372 1.93589 8.4146 1.9009 8.45854 1.86698C8.62486 1.73809 8.80179 1.63075 8.97951 1.5483C8.80178 1.63075 8.62488 1.73809 8.45854 1.86698C8.4146 1.90091 8.372 1.9359 8.33081 1.97179ZM8.97951 1.5483C9.26317 1.41671 9.54883 1.34854 9.79658 1.35745C9.54885 1.34855 9.26315 1.41673 8.97951 1.5483ZM10.1281 1.4289C10.0615 1.39789 9.98425 1.37672 9.89666 1.36555C9.86408 1.36137 9.8307 1.35867 9.79658 1.35745C9.83069 1.35867 9.86409 1.36136 9.89666 1.36555C9.98425 1.37671 10.0615 1.39789 10.1281 1.4289ZM10.2801 1.5349C10.2929 1.54797 10.3048 1.56173 10.316 1.5762L10.2801 1.5349ZM4.28886 1.57641C4.58601 1.19376 5.45554 1.32988 6.14949 1.86718C6.2591 1.95191 6.36049 2.0432 6.45224 2.13863C6.36049 2.04319 6.2591 1.9519 6.14949 1.86718C5.45554 1.32987 4.58601 1.19375 4.28886 1.5764C4.25693 1.61784 4.23243 1.66423 4.21504 1.71472C4.23243 1.66423 4.25694 1.61784 4.28886 1.57641ZM6.22324 2.19212C6.42826 2.3859 6.58562 2.59913 6.68425 2.80348H4.80049C4.7318 2.72497 4.67129 2.64554 4.61916 2.56681C4.52527 2.42503 4.45857 2.28554 4.42026 2.15787C4.35366 1.93594 4.38081 1.7839 4.44648 1.69837C4.5276 1.59423 4.72305 1.52422 5.03959 1.57372C5.34385 1.62129 5.70404 1.77434 6.02761 2.02487C6.09685 2.07839 6.16216 2.13439 6.22324 2.19212ZM7.60236 6.74576H12.6539L12.6539 6.74575H7.60236V14.3015L7.60236 6.74576ZM7.80166 6.94506H12.4546V14.1022H7.80166V6.94506ZM7.60236 6.14786V3.60066H10.0196H10.02H13.642V3.60066H7.60236L7.60236 6.14786ZM13.4427 3.79996V5.94858H7.80166V3.79996H13.4427ZM1.16329 3.79996H6.80518V5.94858H1.16329V3.79996ZM2.1524 6.94506H6.80518V14.1022H2.1524V6.94506ZM0.963994 6.14786L0.963995 3.60066H7.00447L7.00447 3.60066H0.963994V6.14786ZM1.9531 14.3015L1.9531 6.74576H7.00447L7.00447 6.74575H1.9531V14.3015Z" fill="white"/>
</svg>
