<svg width="17" height="16" viewBox="0 0 17 16" fill="none" xmlns="http://www.w3.org/2000/svg">
<path fill-rule="evenodd" clip-rule="evenodd" d="M12.7252 2.87325H15.5847L15.5847 2.87317H12.7252V3.77818C12.7252 3.94339 12.5913 4.07712 12.4262 4.07712C12.2754 4.07712 12.1506 3.96542 12.1302 3.82007C12.1505 3.96546 12.2754 4.0772 12.4262 4.0772C12.5913 4.0772 12.7252 3.94347 12.7252 3.77825V2.87325ZM12.1273 2.87325L12.1273 2.87317H4.46136V3.77818C4.46136 3.94339 4.32763 4.07712 4.16241 4.07712C4.00044 4.07712 3.86873 3.94859 3.86362 3.78786C3.86869 3.94862 4.00041 4.0772 4.16242 4.0772C4.32763 4.0772 4.46136 3.94347 4.46136 3.77825V2.87325H12.1273ZM3.86347 2.87325V2.87317H1.34516V14.7194L1.34516 2.87325H3.86347ZM12.9245 3.07255H15.3854V14.5201H1.54446V3.07255H3.66417V3.77825C3.66417 4.05354 3.88713 4.2765 4.16242 4.2765C4.4377 4.2765 4.66066 4.05354 4.66066 3.77825V3.07255H11.928V3.77825C11.928 4.05363 12.1512 4.2765 12.4262 4.2765C12.7012 4.2765 12.9245 4.05363 12.9245 3.77825V3.07255ZM15.8836 2.07606H12.9245V0.911175C12.9245 0.635803 12.7012 0.412933 12.4262 0.412933C12.1512 0.412933 11.928 0.635803 11.928 0.911175V2.07606H4.66066V0.911175C4.66066 0.635889 4.4377 0.412933 4.16242 0.412933C3.88713 0.412933 3.66417 0.635889 3.66417 0.911175V2.07606H1.04621C0.77093 2.07606 0.547974 2.29902 0.547974 2.5743V15.0184C0.547974 15.2934 0.770843 15.5166 1.04621 15.5166H15.8836C16.1587 15.5166 16.3819 15.2935 16.3819 15.0184V2.5743C16.3819 2.29893 16.1586 2.07606 15.8836 2.07606ZM16.1821 2.55696C16.1824 2.56267 16.1826 2.56843 16.1826 2.57423V15.0183C16.1826 15.1833 16.0487 15.3172 15.8836 15.3172H1.04621C0.882946 15.3172 0.750428 15.1865 0.747324 15.0241C0.750387 15.1865 0.882921 15.3173 1.04621 15.3173H15.8836C16.0487 15.3173 16.1826 15.1834 16.1826 15.0184V2.5743C16.1826 2.56848 16.1824 2.5627 16.1821 2.55696ZM4.46121 0.901492C4.46131 0.904681 4.46136 0.907883 4.46136 0.911097V2.27528H4.46136V0.911175C4.46136 0.907935 4.46131 0.904707 4.46121 0.901492ZM12.7247 0.893832C12.725 0.899571 12.7252 0.905353 12.7252 0.911175L12.7252 2.27528V0.911097C12.7252 0.905302 12.725 0.899545 12.7247 0.893832Z" fill="white"/>
<path d="M6.123 10.1499L5.78564 12.1968C5.74265 12.4527 5.83993 12.708 6.03986 12.8637C6.15609 12.9542 6.29352 13.0001 6.43265 13.0001C6.53332 13.0001 6.63513 12.9759 6.73042 12.9265L8.54195 11.9709L10.2587 12.9117C10.481 13.0348 10.7463 13.0154 10.9507 12.8614C11.1555 12.7071 11.2561 12.4497 11.2134 12.1897L10.8775 10.1505L12.2999 8.70518C12.4814 8.52172 12.5453 8.25227 12.4673 8.00226C12.3895 7.75225 12.1859 7.5741 11.9374 7.53729L9.9686 7.23957L9.08942 5.3832C8.97744 5.14674 8.75177 5.00009 8.49925 5.00009C8.49812 5.00009 8.4967 5.00009 8.49557 5.00009C8.24389 5.00156 8.01993 5.14851 7.91049 5.38438L7.02989 7.23928L5.06397 7.5367C4.81455 7.57351 4.61066 7.75137 4.5329 8.00079C4.45457 8.25109 4.51848 8.52054 4.69946 8.704L6.123 10.1499ZM7.37263 8.08C7.51063 8.0591 7.62997 7.96899 7.6919 7.83854L8.5001 6.13588L9.3066 7.83854C9.36853 7.96899 9.48815 8.05939 9.62615 8.0803L11.4315 8.35328L10.1258 9.67989C10.026 9.78148 9.98048 9.92754 10.0039 10.0707L10.3122 11.9423L8.74357 11.0825C8.62169 11.0153 8.47662 11.0142 8.35418 11.0792L6.68546 11.9594L6.99681 10.0704C7.02028 9.92725 6.97475 9.78089 6.87493 9.6793L5.56902 8.35269L7.37263 8.08Z" fill="white"/>
</svg>
