<svg width="16" height="19" viewBox="0 0 16 19" fill="none" xmlns="http://www.w3.org/2000/svg">
<path d="M11.5953 3.44465C10.2847 3.15806 8.90316 4.3664 8.51533 6.13874C8.47986 6.29997 8.5821 6.45941 8.74333 6.49468C8.76485 6.49927 8.78657 6.50166 8.8075 6.50166C8.94482 6.50166 9.06878 6.4062 9.09927 6.26649C9.41695 4.81621 10.4812 3.81255 11.4677 4.02859C11.6293 4.06446 11.7882 3.96183 11.8237 3.8004C11.8589 3.63917 11.7567 3.47973 11.5953 3.44465Z" fill="#353442"/>
<path d="M13.3181 1.8956C12.2648 1.40712 11.0334 1.48206 9.84996 2.10665C9.23891 2.42911 8.68048 2.88211 8.19679 3.43058C7.4295 1.26363 5.65636 -0.150781 3.81267 0.0128417C1.45838 0.220509 -0.240028 2.86099 0.0270297 5.89926C0.244064 8.36316 1.64791 10.405 3.47466 10.9564L3.63131 12.7347C3.64506 12.8902 3.7756 13.0074 3.92886 13.0074C3.93763 13.0074 3.94639 13.007 3.95536 13.0062L4.58355 12.951C4.42391 13.4927 4.21425 14.5677 4.71966 15.427C5.19957 16.2428 4.86156 17.2771 4.73441 17.6663C4.71269 17.7329 4.69635 17.7845 4.68758 17.8188C4.64692 17.9788 4.74358 18.1414 4.90362 18.1821C4.92833 18.1883 4.95324 18.1913 4.97755 18.1913C5.11108 18.1913 5.23265 18.1014 5.26713 17.9659C5.27371 17.9404 5.28666 17.9019 5.30301 17.8521C5.45308 17.3925 5.85167 16.1718 5.23524 15.1239C4.76012 14.3162 5.1336 13.1628 5.23146 12.8942L5.94115 12.8318C6.10557 12.8174 6.22734 12.6724 6.21279 12.5079L6.05674 10.7296C6.34732 10.5817 6.62075 10.3894 6.87506 10.158C7.05383 10.5518 7.28381 10.91 7.57 11.2139L6.81885 12.8332C6.78557 12.9049 6.78198 12.9872 6.80949 13.0616C6.83679 13.1361 6.89259 13.1967 6.96434 13.2302L7.52755 13.4913C7.39024 13.8727 6.98945 15.1901 7.58674 16.2049C8.06605 17.0208 7.72864 18.0548 7.60149 18.444C7.57977 18.5107 7.56323 18.5628 7.55466 18.597C7.514 18.7571 7.61086 18.9195 7.77109 18.9602C7.79561 18.9663 7.82032 18.9693 7.84463 18.9693C7.97816 18.9693 8.09993 18.8792 8.13421 18.7437C8.14059 18.7182 8.15374 18.6795 8.17008 18.6295C8.31996 18.1701 8.71815 16.9501 8.10213 15.9018C7.66168 15.153 7.95046 14.1071 8.07303 13.744L8.77336 14.0686C8.81401 14.0874 8.85686 14.0963 8.89891 14.0963C9.01171 14.0963 9.11973 14.0324 9.17016 13.9231L9.9211 12.3041C11.8272 12.4023 13.8419 10.9586 14.8812 8.71731C16.1635 5.94988 15.4625 2.88969 13.3181 1.8956ZM5.62188 10.273C5.5035 10.324 5.43115 10.4452 5.44251 10.5736L5.59079 12.2622L4.2007 12.3844L4.05182 10.6957C4.04046 10.5672 3.94799 10.4604 3.82243 10.4311C2.16807 10.0426 0.822422 8.11464 0.622528 5.84685C0.384368 3.13701 1.83903 0.787109 3.86508 0.60834C5.53539 0.46106 7.14889 1.88145 7.74977 3.99857C7.50603 4.34375 7.28621 4.71385 7.10225 5.11085C6.40292 6.61852 6.26621 8.22705 6.64726 9.5428C6.33795 9.86447 5.99436 10.1122 5.62188 10.273ZM14.3383 8.4658C13.3819 10.5285 11.4625 11.8859 9.77163 11.6918C9.64289 11.6771 9.52052 11.746 9.46651 11.863L8.75363 13.4004L7.4871 12.8133L8.20018 11.2755C8.25439 11.1585 8.22768 11.0198 8.13342 10.9315C6.89259 9.7692 6.68712 7.42707 7.64474 5.36196C7.83168 4.95898 8.05708 4.5859 8.30939 4.24291C8.31936 4.23075 8.32873 4.2184 8.3367 4.20484C8.83633 3.5364 9.44758 2.99472 10.1292 2.63519C11.1442 2.09987 12.1873 2.02992 13.0668 2.43788C14.9119 3.29346 15.4825 5.99772 14.3383 8.4658Z" fill="#353442"/>
</svg>
