<svg width="20" height="16" viewBox="0 0 20 16" fill="none" xmlns="http://www.w3.org/2000/svg">
<path d="M19.3552 1.53458C19.3552 1.51465 19.3552 1.47479 19.3552 1.47479C19.2555 0.298945 15.728 0 13.8546 0C11.9812 0 8.45368 0.318874 8.35403 1.47479V1.49472V1.51465V1.53458C8.35403 1.59437 8.37396 1.67409 8.39389 1.73388L9.03164 4.38452C8.17466 4.18523 7.23797 4.26495 6.75966 4.94255C6.73973 4.96248 6.62015 5.30129 6.62015 5.30129C6.26142 4.72333 5.48416 4.32473 4.9062 4.22509C4.88627 4.22509 4.88627 4.22509 4.86634 4.22509C4.84641 4.22509 4.84641 4.22509 4.82648 4.22509C4.38803 4.1653 3.84993 4.22509 3.41148 4.40445C2.85345 4.62368 2.51464 5.00234 2.45485 5.4408C2.45485 5.46072 2.45485 5.48065 2.45485 5.50058L2.47478 5.81946C1.81711 5.87925 1.23915 6.09847 0.780764 6.41735C0.242663 6.81594 -0.0363519 7.33411 0.0035074 7.87221C0.023437 8.27081 0.202804 8.64947 0.541608 8.94841C1.05978 9.42673 1.87689 9.68581 2.7538 9.70574C2.89331 10.1841 3.15239 10.5029 3.81007 10.6026L3.88979 10.6225C3.96951 10.6424 4.04923 10.6424 4.12894 10.6424C4.28838 10.6424 4.46775 10.6225 4.62719 10.5826C4.60726 11.0809 4.80655 11.4994 5.38451 11.898L5.46423 11.9379C5.82296 12.177 6.12191 12.2767 6.42085 12.2767C6.58029 12.2767 6.73973 12.2368 6.87924 12.177C6.9191 12.4162 7.01874 12.6553 7.11839 12.8347L7.15825 12.8945C7.4572 13.3927 7.796 13.5721 8.19459 13.5721C8.31417 13.5721 8.43375 13.5522 8.55333 13.5322C8.8722 14.449 9.45016 15.1864 10.1278 15.5053C10.3869 15.6248 10.6459 15.6846 10.8851 15.6846C11.0445 15.6846 11.184 15.6647 11.3235 15.6049C11.8417 15.4255 12.2204 14.9672 12.3798 14.2896C12.5193 13.6917 12.4795 13.0141 12.2802 12.3365L12.4197 12.2966C12.4396 12.2966 12.4595 12.2767 12.4795 12.2767C12.7186 12.1372 12.898 11.898 12.9976 11.619C13.2767 11.6389 13.5557 11.6588 13.8546 11.6588C15.7081 11.6588 17.5615 11.1606 17.6412 10.1841C17.6412 10.1641 17.6412 10.1442 17.6412 10.1243V8.56975L19.2992 1.77175C19.3191 1.71196 19.3552 1.51465 19.3552 1.53458ZM13.8546 0.57796C17.0434 0.57796 18.7174 1.21571 18.7573 1.51465L18.7374 1.59437C18.5381 1.89332 16.8839 2.47128 13.8546 2.47128C10.8253 2.47128 9.17115 1.89332 8.97185 1.59437L8.95192 1.51465C8.99178 1.21571 10.6659 0.57796 13.8546 0.57796ZM9.15122 2.37163C10.3271 2.8898 12.4994 3.04924 13.8546 3.04924C15.2098 3.04924 17.3822 2.8898 18.558 2.37163L17.1031 8.49003C17.1031 8.50996 17.1031 8.52989 17.1031 8.54982C17.1031 8.92848 15.8276 9.48651 13.8945 9.48651C13.456 9.48651 13.0375 9.44665 12.619 9.4068C12.2802 8.94841 11.762 8.54982 11.204 8.41031L11.4232 8.21102C11.4431 8.19109 11.4475 8.1863 11.4631 8.17116C11.6823 7.85228 11.762 7.43376 11.6624 6.99531C11.5228 6.25791 10.9449 5.42087 10.2673 4.94255C10.2473 4.94255 10.2473 4.92262 10.2274 4.92262C10.2075 4.92262 10.2075 4.90269 10.1876 4.90269C10.0281 4.80305 9.86868 4.7034 9.68932 4.62368L9.15122 2.37163ZM0.960131 8.52989C0.800693 8.39038 0.621327 8.15123 0.601397 7.85228C0.581467 7.51348 0.780764 7.15474 1.1395 6.89566C1.49823 6.63657 1.97654 6.45721 2.51464 6.39742L2.65415 8.90855C2.65415 8.98827 2.67408 9.04806 2.67408 9.12778C1.97654 9.08792 1.33879 8.8687 0.960131 8.52989ZM4.00937 10.0445L3.92965 10.0246C3.41148 9.9449 3.31183 9.78546 3.25204 8.84877L3.07267 5.48065C3.13246 5.18171 3.47127 5.00234 3.67056 4.92262C4.00937 4.78312 4.42789 4.74326 4.76669 4.78312C4.78662 4.78312 4.78662 4.78312 4.80655 4.78312C4.82648 4.78312 4.82648 4.78312 4.84641 4.78312C5.30479 4.86284 5.94254 5.20164 6.16177 5.62016C6.22156 5.73974 6.30546 6.07735 6.28135 6.17819L5.02578 9.2075C4.94606 9.44665 4.86634 9.66588 4.80655 9.86518C4.78662 9.86518 4.74676 9.88511 4.72683 9.90504C4.58733 10.0047 4.22859 10.0844 4.00937 10.0445ZM5.80304 11.4595L5.72332 11.4197C5.08557 10.9812 5.1055 10.6225 5.52402 9.48651L7.2579 5.28136C7.63656 4.78312 8.57326 4.82298 9.31065 5.12192H9.33058C9.50995 5.20164 9.68932 5.28136 9.84875 5.38101C9.86868 5.38101 9.86868 5.40094 9.88861 5.40094C9.90854 5.40094 9.90854 5.42087 9.92847 5.42087C10.4865 5.79953 10.9648 6.49707 11.0645 7.09496C11.1243 7.37397 11.0844 7.61313 10.9648 7.81242L7.67642 10.9414C6.77959 11.7585 6.46071 11.898 5.80304 11.4595ZM11.8417 14.1899C11.7221 14.6483 11.483 14.9672 11.1641 15.0867C10.8851 15.1864 10.6061 15.0867 10.4068 15.007C9.88861 14.7479 9.4103 14.1501 9.15122 13.4127C9.17115 13.4127 9.19108 13.4127 9.21101 13.3927L11.7421 12.5557C11.9214 13.1336 11.9613 13.7116 11.8417 14.1899ZM12.2204 11.7784L9.03164 12.8148C8.1348 13.0739 7.93551 13.0539 7.67642 12.5955L7.63656 12.5358C7.47713 12.2567 7.43727 11.9777 7.4572 11.8781V11.8581C7.65649 11.7186 7.85579 11.5393 8.07502 11.3599L10.4865 9.06799C10.5158 9.04288 10.5431 9.02853 10.583 9.0086C10.6439 8.98508 10.7257 8.96834 10.8054 8.96834C11.2837 8.92848 11.9414 9.42672 12.2005 9.90504L12.2204 9.92497C12.2204 9.9449 12.2403 9.9449 12.2403 9.96483C12.4197 10.2638 12.5193 10.6624 12.4994 11.041C12.4994 11.1207 12.4994 11.2005 12.4795 11.3001C12.4595 11.4795 12.3997 11.6788 12.2204 11.7784ZM13.8745 11.1008C13.6155 11.1008 13.3763 11.0809 13.1172 11.061C13.1172 11.061 13.1172 11.061 13.1172 11.041C13.1172 10.7022 13.0574 10.3634 12.9378 10.0445C13.2368 10.0645 13.5557 10.0844 13.8745 10.0844C15.1301 10.0844 16.3657 9.84525 17.0832 9.4068V10.1442C17.0832 10.5229 15.8077 11.1008 13.8745 11.1008Z" fill="#353442"/>
</svg>
