<svg width="94" height="96" viewBox="0 0 94 96" fill="none" xmlns="http://www.w3.org/2000/svg">
<path d="M32.6113 10.1307C32.6113 4.55471 37.1048 0 42.6901 0C46.8185 0 50.3503 2.48844 51.912 6.03841C53.3629 5.17503 55.0573 4.6787 56.8707 4.6787C62.2739 4.6787 66.6197 9.0847 66.6197 14.4773V19.5254C67.8651 18.9441 69.2544 18.6192 70.7216 18.6192C76.1248 18.6192 80.4706 23.0252 80.4706 28.4178V49.8946C78.866 49.1324 77.0711 48.7059 75.1765 48.7059C75.0584 48.7059 74.9408 48.7075 74.8235 48.7108V28.4178C74.8235 26.1059 72.9681 24.2663 70.7216 24.2663C68.4752 24.2663 66.6197 26.1059 66.6197 28.4178V43.2063H60.9726V14.4773C60.9726 12.1654 59.1172 10.3258 56.8707 10.3258C54.6243 10.3258 52.7688 12.1654 52.7688 14.4773V43.2063H47.1218V10.1307C47.1218 7.63543 45.1187 5.64706 42.6901 5.64706C40.2615 5.64706 38.2584 7.63543 38.2584 10.1307V43.2063H32.6113V19.1082C32.6113 16.7963 30.7559 14.9567 28.5094 14.9567C26.263 14.9567 24.4075 16.7963 24.4075 19.1082V62.8245L13.2053 51.5421C11.4762 49.8006 8.68126 49.8007 6.95218 51.5421C5.21202 53.2947 5.21202 56.1446 6.95218 57.8972L31.6104 82.732L34.2786 85.113C38.5287 88.4015 43.8415 90.3529 49.6127 90.3529C54.4373 90.3529 58.949 88.9853 62.784 86.6121C63.9654 87.1993 65.2971 87.5294 66.7059 87.5294C71.4619 87.5294 75.339 83.7666 75.5226 79.0556C75.5271 78.9396 75.5294 78.823 75.5294 78.7059C75.5294 76.5668 74.7682 74.6055 73.502 73.0781C74.1812 71.0502 74.6134 68.9072 74.7625 66.6851C76.8182 68.0649 78.5003 69.9573 79.6254 72.1801C76.3876 85.8309 64.1922 96 49.6127 96C42.5036 96 35.9508 93.5768 30.7347 89.5108L30.6607 89.4531L27.7233 86.8319L2.94489 61.876C-0.981627 57.9214 -0.98163 51.5179 2.94489 47.5633C6.88249 43.5975 13.275 43.5975 17.2126 47.5633L18.7605 49.1222V19.1082C18.7605 13.7156 23.1062 9.30961 28.5094 9.30961C29.9766 9.30961 31.3659 9.6345 32.6113 10.2158V10.1307Z" fill="url(#paint0_linear_1231_11678)"/>
<path fill-rule="evenodd" clip-rule="evenodd" d="M51.561 68.3659C51.5401 68.1683 51.5294 67.9677 51.5294 67.7647C51.5294 64.6459 54.0577 62.1176 57.1765 62.1176L57.2071 62.1177C59.1475 62.128 60.8563 63.117 61.8651 64.6162C61.9458 64.7363 62.0221 64.8596 62.0936 64.9859C62.11 65.0147 62.1261 65.0438 62.142 65.073C62.4467 65.6339 62.6591 66.2522 62.7589 66.9075C62.764 66.9411 62.7689 66.9752 62.7734 67.009L62.7782 67.0455L62.8235 67.7647C62.8235 69.4598 62.0767 70.9804 60.8942 72.0155C59.9009 72.8849 58.6002 73.4118 57.1765 73.4118C56.6496 73.4118 56.1395 73.3396 55.6556 73.2046L55.6305 73.1975C54.9408 73.0017 54.3048 72.678 53.7498 72.2537C52.5499 71.3363 51.7285 69.9487 51.561 68.3659ZM67.0074 62.203C67.0402 62.2609 67.0724 62.319 67.1041 62.3773C67.4219 62.9624 67.69 63.5794 67.9021 64.2219L69.2252 64.4548C73.9103 65.2796 77.819 68.3524 79.7928 72.522C84.3353 70.6909 87.5294 66.2411 87.5294 61.0588C87.5294 54.2365 81.9988 48.7059 75.1765 48.7059C69.4464 48.7059 64.6145 52.6124 63.2254 57.9163L63.1556 58.1826C64.5073 59.0276 65.6657 60.149 66.5503 61.4638C66.7116 61.7036 66.8642 61.9502 67.0074 62.203ZM57.7626 56.4855C57.6332 56.4789 57.5033 56.4745 57.3728 56.4723C57.3277 56.4715 57.2824 56.471 57.2371 56.4708C57.217 56.4706 57.1966 56.4706 57.1765 56.4706C50.9389 56.4706 45.8824 61.5271 45.8824 67.7647C45.8824 72.2146 48.4559 76.0635 52.1958 77.9041C52.2157 77.9139 52.2356 77.9236 52.2556 77.9333C52.2421 78.1891 52.2353 78.4467 52.2353 78.7059C52.2353 78.8717 52.2381 79.0369 52.2436 79.2014C52.3755 83.1205 54.0658 86.6446 56.7145 89.1735C59.3119 91.6535 62.831 93.1765 66.7059 93.1765C67.1935 93.1765 67.6754 93.1524 68.1505 93.1053C71.4552 92.7778 74.4325 91.3389 76.7038 89.1672C79.392 86.5974 81.0913 83.0019 81.1733 79.0091C81.1752 78.9201 81.1762 78.8309 81.1764 78.7416C81.1765 78.7297 81.1765 78.7178 81.1765 78.7059C81.1765 78.5107 81.1726 78.3165 81.165 78.1233C81.1639 78.0955 81.1627 78.0677 81.1614 78.0399C88.1604 75.5731 93.1765 68.9017 93.1765 61.0588C93.1765 51.1177 85.1176 43.0588 75.1765 43.0588C66.8156 43.0588 59.7861 48.7592 57.7626 56.4855ZM75.529 78.6226C75.5087 76.4214 74.6823 74.4129 73.3308 72.8778C72.7708 72.2416 72.1205 71.6868 71.4001 71.2333C70.5761 70.7146 69.6602 70.3284 68.6825 70.1046C68.5383 70.0716 68.3929 70.0422 68.2461 70.0163C68.2171 70.1596 68.1854 70.3019 68.1511 70.4431C67.6358 72.5618 66.523 74.4466 65.0013 75.909C63.1313 77.7061 60.6437 78.8654 57.8884 79.0367C57.894 79.1878 57.9034 79.3378 57.9164 79.4868C57.92 79.5273 57.9238 79.5677 57.9279 79.608C58.1156 81.4558 58.8734 83.1351 60.0226 84.467C61.6406 86.3424 64.0346 87.5294 66.7059 87.5294C71.4619 87.5294 75.339 83.7666 75.5226 79.0556C75.5227 79.0527 75.5228 79.0498 75.5229 79.047C75.5272 78.9338 75.5294 78.8201 75.5294 78.7059C75.5294 78.6781 75.5293 78.6503 75.529 78.6226Z" fill="url(#paint1_linear_1231_11678)"/>
<defs>
<linearGradient id="paint0_linear_1231_11678" x1="46.5882" y1="0" x2="46.5882" y2="96" gradientUnits="userSpaceOnUse">
<stop stop-color="#4F4DAE"/>
<stop offset="1" stop-color="#6B67EA"/>
</linearGradient>
<linearGradient id="paint1_linear_1231_11678" x1="46.5882" y1="0" x2="46.5882" y2="96" gradientUnits="userSpaceOnUse">
<stop stop-color="#4F4DAE"/>
<stop offset="1" stop-color="#6B67EA"/>
</linearGradient>
</defs>
</svg>
