<svg width="18" height="12" viewBox="0 0 18 12" fill="none" xmlns="http://www.w3.org/2000/svg">
<path d="M17.1648 10.9784C17.1741 10.9495 17.1805 10.919 17.1805 10.8869V0.298749C17.1805 0.266462 17.1741 0.23577 17.1646 0.206673C17.1632 0.202687 17.1624 0.1987 17.1608 0.194714C17.148 0.160634 17.1293 0.129943 17.1058 0.103037C17.1042 0.101244 17.104 0.0990515 17.1024 0.0972578C17.1014 0.0962613 17.1002 0.0958625 17.0992 0.094866C17.0741 0.06816 17.0444 0.0466358 17.0111 0.0304926C17.0085 0.0292969 17.0065 0.0277024 17.0039 0.0265066C16.9725 0.0123564 16.9382 0.00438461 16.9021 0.00199303C16.8985 0.00179373 16.8951 0.000996325 16.8915 0.000996325C16.8882 0.000797027 16.8852 0 16.8818 0H0.299147C0.295759 0 0.29257 0.000797027 0.289182 0.000996325C0.285993 0.00119562 0.282804 0.00179373 0.279616 0.00199303C0.243144 0.00438461 0.208267 0.0125559 0.176379 0.0269053C0.174386 0.0277025 0.172792 0.0290975 0.170799 0.0298947C0.136918 0.0460379 0.106824 0.0679606 0.0815131 0.0950652C0.0805166 0.0960617 0.0793207 0.0962613 0.0783242 0.0972578C0.0767298 0.0988522 0.0765306 0.101044 0.0749362 0.102838C0.051419 0.129743 0.0324856 0.160634 0.0197305 0.194714C0.0181362 0.1987 0.017339 0.202687 0.0159439 0.206872C0.00637754 0.235969 0 0.266661 0 0.298948V10.8873C0 10.92 0.00657681 10.9511 0.0163424 10.9805C0.0177375 10.9845 0.0185347 10.9883 0.0199298 10.9923C0.0328842 11.0266 0.0520168 11.0575 0.0757333 11.0844C0.0771284 11.086 0.0775271 11.088 0.0789222 11.0896C0.080118 11.091 0.0817123 11.0918 0.0831074 11.0932C0.0928731 11.1033 0.103635 11.1123 0.114796 11.1211C0.119778 11.1248 0.124163 11.1294 0.129345 11.133C0.142498 11.1422 0.156649 11.1496 0.171197 11.1563C0.174785 11.1579 0.177973 11.1605 0.181561 11.1619C0.217634 11.1773 0.257294 11.186 0.298948 11.186H16.8814C16.923 11.186 16.9627 11.1775 16.9988 11.1619C17.0043 11.1595 17.0095 11.1559 17.0149 11.1531C17.0273 11.147 17.0396 11.1406 17.051 11.1328C17.057 11.1286 17.0623 11.1232 17.0681 11.1187C17.0783 11.1105 17.0882 11.1023 17.097 11.093C17.0986 11.0914 17.1004 11.0902 17.102 11.0886C17.1036 11.0868 17.104 11.0844 17.1056 11.0826C17.1289 11.0559 17.1476 11.0252 17.1604 10.9913C17.1624 10.9869 17.1634 10.9827 17.1648 10.9784ZM0.598095 0.976762L5.62978 5.57278L0.598095 10.2055V0.976762ZM10.911 5.34758C10.8903 5.36113 10.8683 5.37249 10.851 5.39162C10.8444 5.3988 10.8422 5.40816 10.8365 5.41574L8.59036 7.46732L1.06963 0.597696H16.1111L10.911 5.34758ZM6.07302 5.97756L8.38867 8.09271C8.44587 8.14493 8.51802 8.17104 8.59036 8.17104C8.66271 8.17104 8.73485 8.14493 8.79185 8.09271L11.0788 6.00387L16.1097 10.5881H1.06525L6.07302 5.97756ZM11.5222 5.59889L16.5826 0.976762V10.2103L11.5222 5.59889Z" fill="#131318"/>
</svg>
