<svg width="20" height="20" viewBox="0 0 20 20" fill="none" xmlns="http://www.w3.org/2000/svg">
<path fill-rule="evenodd" clip-rule="evenodd" d="M16.7645 9.93075C16.6327 9.93075 16.5063 9.98311 16.4131 10.0763C16.3199 10.1695 16.2675 10.296 16.2675 10.4278V16.4654H8.15266V7.95451H9.23979C9.37161 7.95451 9.49803 7.90214 9.59124 7.80893C9.68445 7.71572 9.73682 7.5893 9.73682 7.45748C9.73682 7.32566 9.68445 7.19924 9.59124 7.10603C9.49803 7.01281 9.37161 6.96045 9.23979 6.96045H6.07147C5.93965 6.96045 5.81323 7.01281 5.72002 7.10603C5.62681 7.19924 5.57444 7.32566 5.57444 7.45748C5.57444 7.5893 5.62681 7.71572 5.72002 7.80893C5.81323 7.90214 5.93965 7.95451 6.07147 7.95451H7.1586V16.4654H3.99424V14.9822C3.99424 14.8504 3.94188 14.724 3.84867 14.6308C3.75545 14.5376 3.62903 14.4852 3.49721 14.4852C3.36539 14.4852 3.23897 14.5376 3.14576 14.6308C3.05255 14.724 3.00018 14.8504 3.00018 14.9822V16.9624C3.00018 17.0943 3.05255 17.2207 3.14576 17.3139C3.23897 17.4071 3.36539 17.4595 3.49721 17.4595H16.7645C16.8964 17.4595 17.0228 17.4071 17.116 17.3139C17.2092 17.2207 17.2616 17.0942 17.2616 16.9624V10.4278C17.2616 10.296 17.2092 10.1695 17.116 10.0763C17.0228 9.98311 16.8964 9.93075 16.7645 9.93075ZM17.039 17.0761C17.0242 17.1118 17.0024 17.1446 16.9746 17.1724C16.9189 17.2281 16.8433 17.2594 16.7646 17.2594H3.49723C3.41845 17.2594 3.3429 17.2281 3.28719 17.1724C3.23149 17.1167 3.2002 17.0412 3.2002 16.9624V14.9822C3.2002 14.9648 3.20172 14.9475 3.20471 14.9306C3.20172 14.9475 3.20018 14.9648 3.20018 14.9822V16.9624C3.20018 17.0412 3.23148 17.1168 3.28718 17.1725C3.34289 17.2282 3.41844 17.2595 3.49721 17.2595H16.7645C16.8433 17.2595 16.9189 17.2282 16.9746 17.1725C17.0024 17.1446 17.0242 17.1118 17.039 17.0761ZM7.3586 16.6654H7.35861V7.75446H6.07148C5.99271 7.75446 5.91716 7.72317 5.86145 7.66746C5.80575 7.61176 5.77445 7.53621 5.77445 7.45743C5.77445 7.43344 5.77736 7.40974 5.78297 7.38682C5.77735 7.40976 5.77444 7.43347 5.77444 7.45748C5.77444 7.53626 5.80574 7.61181 5.86144 7.66751C5.91714 7.72321 5.99269 7.75451 6.07147 7.75451H7.3586V16.6654ZM9.52398 7.54387C9.50991 7.59011 9.48463 7.63266 9.44983 7.66746C9.39413 7.72317 9.31858 7.75446 9.2398 7.75446H7.95267V7.75451H9.23979C9.31856 7.75451 9.39412 7.72321 9.44982 7.66751C9.48463 7.6327 9.50991 7.59013 9.52398 7.54387ZM16.4675 16.6654H16.4675V10.4277C16.4675 10.4172 16.4681 10.4067 16.4692 10.3963C16.4681 10.4067 16.4675 10.4172 16.4675 10.4278V16.6654Z" fill="#131318"/>
<path fill-rule="evenodd" clip-rule="evenodd" d="M16.7645 3H3.49721C3.36539 3 3.23897 3.05237 3.14576 3.14558C3.05255 3.23879 3.00018 3.36521 3.00018 3.49703V10.8238C3.00018 10.9556 3.05255 11.082 3.14576 11.1752C3.23897 11.2684 3.36539 11.3208 3.49721 11.3208C3.62903 11.3208 3.75545 11.2684 3.84867 11.1752C3.94188 11.082 3.99424 10.9556 3.99424 10.8238V3.99406H11.9111V12.5049H10.8239C10.6921 12.5049 10.5657 12.5573 10.4725 12.6505C10.3793 12.7437 10.3269 12.8702 10.3269 13.002C10.3269 13.1338 10.3793 13.2602 10.4725 13.3534C10.5657 13.4466 10.6921 13.499 10.8239 13.499H13.9923C14.1241 13.499 14.2505 13.4466 14.3437 13.3534C14.4369 13.2602 14.4893 13.1338 14.4893 13.002C14.4893 12.8702 14.4369 12.7437 14.3437 12.6505C14.2505 12.5573 14.1241 12.5049 13.9923 12.5049H12.9051V3.99406H16.2675V6.26931C16.2675 6.40113 16.3199 6.52755 16.4131 6.62076C16.5063 6.71397 16.6327 6.76634 16.7645 6.76634C16.8964 6.76634 17.0228 6.71397 17.116 6.62076C17.2092 6.52755 17.2616 6.40113 17.2616 6.26931V3.49703C17.2616 3.36521 17.2092 3.23879 17.116 3.14558C17.0228 3.05237 16.8964 3 16.7645 3ZM17.039 6.38298C17.0242 6.41866 17.0024 6.45145 16.9746 6.47929C16.9189 6.53499 16.8433 6.56629 16.7646 6.56629C16.6858 6.56629 16.6102 6.53499 16.5545 6.47929C16.4988 6.42359 16.4675 6.34803 16.4675 6.26926V3.79401H12.7051V3.79406H16.4675V6.26931C16.4675 6.34808 16.4988 6.42363 16.5545 6.47934C16.6102 6.53504 16.6858 6.56634 16.7645 6.56634C16.8433 6.56634 16.9189 6.53504 16.9746 6.47934C17.0024 6.45149 17.0242 6.41867 17.039 6.38298ZM14.2667 13.1156C14.2519 13.1513 14.2301 13.1841 14.2023 13.212C14.1466 13.2677 14.0711 13.299 13.9923 13.299H10.824C10.7452 13.299 10.6696 13.2677 10.6139 13.212C10.5582 13.1563 10.5269 13.0807 10.5269 13.0019C10.5269 12.9914 10.5275 12.9809 10.5286 12.9705C10.5275 12.9809 10.5269 12.9914 10.5269 13.002C10.5269 13.0808 10.5582 13.1563 10.6139 13.212C10.6696 13.2677 10.7452 13.299 10.8239 13.299H13.9923C14.071 13.299 14.1466 13.2677 14.2023 13.212C14.2301 13.1842 14.2519 13.1513 14.2667 13.1156ZM12.1111 12.7049H12.1111V3.79401H3.79425V3.79406H12.1111V12.7049ZM3.7814 10.9101C3.76734 10.9564 3.74206 10.9989 3.70726 11.0337C3.65155 11.0894 3.576 11.1207 3.49723 11.1207C3.41845 11.1207 3.3429 11.0894 3.28719 11.0337C3.23149 10.978 3.2002 10.9025 3.2002 10.8237V3.49698C3.2002 3.47268 3.20317 3.44869 3.20892 3.4255C3.20316 3.44871 3.20018 3.47272 3.20018 3.49703V10.8238C3.20018 10.9025 3.23148 10.9781 3.28718 11.0338C3.34289 11.0895 3.41844 11.1208 3.49721 11.1208C3.57599 11.1208 3.65154 11.0895 3.70724 11.0338C3.74206 10.999 3.76734 10.9564 3.7814 10.9101Z" fill="#131318"/>
</svg>
