<svg width="20" height="20" viewBox="0 0 20 20" fill="none" xmlns="http://www.w3.org/2000/svg">
<path d="M17.9804 2H7.43039C7.3243 2 7.22257 2.04214 7.14755 2.11716C7.07254 2.19217 7.0304 2.29391 7.0304 2.4V6.60999H2.40039C2.2943 6.60999 2.19257 6.65213 2.11755 6.72714C2.04254 6.80216 2.0004 6.90389 2.0004 7.00998V15.4C2.0004 15.5061 2.04254 15.6078 2.11755 15.6828C2.19257 15.7578 2.2943 15.8 2.40039 15.8H4.8604L7.18039 18.25C7.21764 18.2899 7.26249 18.3219 7.31229 18.3442C7.36208 18.3666 7.41584 18.3787 7.4704 18.38C7.51995 18.3895 7.57084 18.3895 7.62039 18.38C7.69493 18.3513 7.75888 18.3005 7.80359 18.2343C7.8483 18.1681 7.87162 18.0898 7.87039 18.01V15.83H13.4604C13.5133 15.8314 13.5659 15.822 13.6151 15.8023C13.6642 15.7827 13.7089 15.7533 13.7463 15.7159C13.7837 15.6785 13.8131 15.6338 13.8327 15.5847C13.8524 15.5355 13.8618 15.4829 13.8604 15.43V11.22H17.9804C18.0865 11.22 18.1882 11.1779 18.2632 11.1028C18.3383 11.0278 18.3804 10.9261 18.3804 10.82V2.42999C18.3845 2.375 18.3773 2.31975 18.359 2.2677C18.3408 2.21565 18.312 2.16795 18.2744 2.12757C18.2368 2.08718 18.1913 2.055 18.1407 2.03305C18.0901 2.0111 18.0355 1.99985 17.9804 2V2ZM7.43039 11.19H9.43039V13.19C9.43149 13.2683 9.45555 13.3445 9.49957 13.4093C9.5436 13.474 9.60565 13.5244 9.67805 13.5542C9.75046 13.584 9.83001 13.592 9.90686 13.577C9.98371 13.562 10.0545 13.5248 10.1104 13.47L12.4304 11.19H13.0504V15H7.46039C7.3543 15 7.25257 15.0421 7.17755 15.1172C7.10254 15.1922 7.06039 15.2939 7.06039 15.4V16.98L5.3004 15.13C5.2639 15.0892 5.2192 15.0565 5.16924 15.0341C5.11927 15.0117 5.06515 15.0001 5.01039 15H2.81039V7.45999H7.04039V10.84C7.05241 10.9355 7.09847 11.0235 7.1701 11.0877C7.24174 11.152 7.33415 11.1884 7.43039 11.19V11.19ZM10.2504 12.19V10.74C10.2504 10.6339 10.2083 10.5322 10.1332 10.4572C10.0582 10.3821 9.95647 10.34 9.85039 10.34H7.85039V2.75H17.6004V10.34H12.3104C12.2581 10.3402 12.2063 10.3509 12.1582 10.3715C12.1101 10.3921 12.0666 10.4222 12.0304 10.46L10.2504 12.19Z" fill="#131318"/>
</svg>
