<svg width="40" height="40" viewBox="0 0 40 40" fill="none" xmlns="http://www.w3.org/2000/svg">
    <path fill-rule="evenodd" clip-rule="evenodd" d="M27 21H15.135L18.768 25.36C19.122 25.784 19.064 26.415 18.64 26.768C18.215 27.122 17.585 27.064 17.231 26.64L12.231 20.64C12.192 20.593 12.173 20.538 12.144 20.486C12.12 20.444 12.091 20.408 12.073 20.362C12.028 20.247 12.001 20.126 12.001 20.004C12.001 20.003 12 20.001 12 20C12 19.999 12.001 19.997 12.001 19.996C12.001 19.874 12.028 19.753 12.073 19.638C12.091 19.592 12.12 19.556 12.144 19.514C12.173 19.462 12.192 19.407 12.231 19.36L17.231 13.36C17.43 13.123 17.714 13 18 13C18.226 13 18.453 13.076 18.64 13.232C19.064 13.585 19.122 14.216 18.768 14.64L15.135 19H27C27.552 19 28 19.448 28 20C28 20.552 27.552 21 27 21Z" fill="white"/>
</svg>
