<svg width="20" height="20" viewBox="0 0 20 20" fill="none" xmlns="http://www.w3.org/2000/svg">
<path fill-rule="evenodd" clip-rule="evenodd" d="M9.39552 14.7238C9.43388 14.7418 9.47621 14.7518 9.51995 14.7521H9.52254C9.62578 14.7521 9.72184 14.6987 9.77645 14.611L13.3152 8.92127C13.3239 8.90712 13.3315 8.89237 13.3375 8.87743C13.7606 8.18647 13.9838 7.39725 13.9838 6.5915C13.9838 5.99359 13.8636 5.42321 13.6462 4.90321C13.8636 5.4232 13.9837 5.99357 13.9837 6.59145C13.9837 7.3972 13.7605 8.18642 13.3374 8.87738C13.3315 8.89232 13.3239 8.90707 13.3151 8.92122L9.7764 14.6109C9.72179 14.6986 9.62573 14.752 9.52249 14.752H9.5199C9.47619 14.7517 9.43386 14.7418 9.39552 14.7238ZM14.1838 6.5915C14.1838 7.42948 13.953 8.25014 13.5157 8.96934C13.5066 8.98954 13.4961 9.00897 13.485 9.0269L9.94622 14.7167C9.85516 14.8629 9.69438 14.9521 9.52195 14.9521H9.51842C9.34424 14.9507 9.18349 14.8585 9.09431 14.7091L5.69494 9.01976C5.68543 9.00397 5.6768 8.98767 5.6691 8.9709C5.23125 8.25128 5 7.43007 5 6.5915C5 4.05959 7.05958 2 9.5913 2C12.1238 2 14.1838 4.05955 14.1838 6.5915ZM9.5915 2.99809C11.5735 2.99809 13.1861 4.61039 13.1861 6.5917C13.1861 7.26402 12.9955 7.92313 12.6345 8.49767C12.6223 8.51695 12.6117 8.53673 12.6027 8.55688L9.53116 13.4948L6.58441 8.56305C6.57501 8.54163 6.56369 8.51972 6.54996 8.49796C6.18877 7.92331 5.99809 7.26421 5.99809 6.5915C5.99809 4.61034 7.61034 2.99809 9.5915 2.99809ZM9.52769 13.8789L9.52768 13.8789L6.4055 8.65357C6.39872 8.63663 6.39055 8.62008 6.38058 8.60434C5.99953 7.99808 5.79804 7.30214 5.79804 6.59145C5.79804 4.49983 7.49983 2.79804 9.59145 2.79804C10.4937 2.79804 11.3234 3.11447 11.9753 3.64214C11.3234 3.11449 10.4937 2.79809 9.5915 2.79809C7.49988 2.79809 5.79809 4.49988 5.79809 6.5915C5.79809 7.30219 5.99958 7.99813 6.38063 8.60439C6.3906 8.62013 6.39877 8.63668 6.40554 8.65362L9.52769 13.8789ZM10.5002 7.94806C10.2404 8.12258 9.92792 8.2245 9.59211 8.2245C8.69189 8.2245 7.95947 7.49208 7.95947 6.59186C7.95947 6.03561 8.23912 5.54342 8.66521 5.24851C8.23908 5.54342 7.9594 6.03562 7.9594 6.59191C7.9594 7.49213 8.69181 8.22455 9.59204 8.22455C9.92788 8.22455 10.2404 8.12261 10.5002 7.94806ZM9.59211 5.55712C10.1627 5.55712 10.6269 6.02128 10.6269 6.59186C10.6269 6.95184 10.4421 7.26945 10.1625 7.45488C10.4421 7.26945 10.6268 6.95186 10.6268 6.59191C10.6268 6.02133 10.1626 5.55717 9.59204 5.55717C9.38143 5.55717 9.18529 5.62041 9.02164 5.72889C9.1853 5.62038 9.38147 5.55712 9.59211 5.55712ZM8.75729 6.59191V6.59184C8.75713 6.13183 9.13184 5.75717 9.59204 5.75717C10.0522 5.75717 10.4268 6.13178 10.4268 6.59191C10.4268 7.05204 10.0522 7.42666 9.59204 7.42666C9.13191 7.42666 8.75729 7.05204 8.75729 6.59191ZM9.59204 8.42455C10.6027 8.42455 11.4247 7.60259 11.4247 6.59191C11.4247 5.58123 10.6027 4.75928 9.59204 4.75928C8.58136 4.75928 7.7594 5.58123 7.7594 6.59191C7.7594 7.60259 8.58136 8.42455 9.59204 8.42455ZM5.60627 16.9806C5.66025 17.034 5.73447 17.0669 5.81645 17.0669H13.3676C13.5326 17.0669 13.6665 16.933 13.6665 16.768C13.6665 16.6855 13.633 16.6107 13.5789 16.5566C13.633 16.6107 13.6665 16.6854 13.6665 16.7679C13.6665 16.933 13.5326 17.0669 13.3675 17.0669H5.8164C5.73445 17.0669 5.66025 17.0339 5.60627 16.9806ZM13.3676 16.269H5.81645C5.54069 16.269 5.3175 16.4926 5.3175 16.768C5.3175 17.0434 5.54069 17.2669 5.81645 17.2669H13.3676C13.6431 17.2669 13.8665 17.0435 13.8665 16.768C13.8665 16.4925 13.6431 16.269 13.3676 16.269Z" fill="#131318"/>
</svg>
