<svg width="20" height="20" viewBox="0 0 20 20" fill="none" xmlns="http://www.w3.org/2000/svg">
<path d="M7.55893 17.3258C8.36042 17.7746 9.1498 18.0001 9.88515 18.0001C10.5007 17.9998 11.0784 17.8418 11.5926 17.5244L13.4877 16.3553C13.5561 16.3132 13.6049 16.2459 13.6234 16.1676C13.642 16.0896 13.6284 16.0073 13.5863 15.939L11.9436 13.2766C11.9015 13.2085 11.8339 13.1597 11.7559 13.1411C11.6773 13.1228 11.5954 13.1361 11.5272 13.1782L9.61779 14.3568C9.32422 14.5378 8.94757 14.5957 8.58524 14.5161C8.22291 14.4362 7.9136 14.2261 7.73657 13.939L5.14137 9.73317C4.76614 9.12505 4.95527 8.32498 5.56298 7.94974C5.56298 7.94974 5.56318 7.94974 5.56318 7.94954L7.54502 6.72604C7.68717 6.63833 7.73113 6.45202 7.64342 6.30987L6.00052 3.64814C5.91281 3.50599 5.72631 3.46143 5.58436 3.54954L3.60413 4.77183C1.39708 6.13405 1.4745 9.70998 3.79286 13.468C4.85566 15.1911 6.19328 16.5612 7.55893 17.3258ZM3.92211 5.28639L5.64485 4.22319L6.97017 6.37016L5.24562 7.43477C5.24521 7.43497 5.24501 7.43518 5.24481 7.43538C4.354 7.98603 4.07656 9.15892 4.62681 10.0505L7.22201 14.2562C7.48433 14.6818 7.93397 14.9917 8.45539 15.1066C8.96975 15.2194 9.50951 15.1341 9.93556 14.8711L11.5875 13.8515L12.9127 15.9989L11.2748 17.0092C10.0787 17.7472 8.75461 17.3016 7.85452 16.7977C6.57719 16.0823 5.3174 14.7871 4.30763 13.1502C2.17638 9.69546 2.0179 6.4617 3.92211 5.28639Z" fill="#131318"/>
<path d="M9.58878 6.82373C10.5675 6.8816 11.4337 7.38447 11.9656 8.2037C12.4741 8.98442 12.5965 9.94116 12.3011 10.8287C12.2483 10.9872 12.334 11.1586 12.4925 11.211C12.5241 11.2217 12.5562 11.2266 12.588 11.2266C12.7149 11.2266 12.8328 11.1465 12.875 11.0197C13.229 9.95628 13.0822 8.8094 12.4727 7.87383C11.8448 6.9064 10.7798 6.288 9.62446 6.21965C9.4561 6.21259 9.31456 6.337 9.30468 6.50374C9.2948 6.6707 9.42203 6.81385 9.58878 6.82373Z" fill="#131318"/>
<path d="M10.0121 4.57883C11.5969 4.76091 13.0037 5.63054 13.8717 6.96433C14.7127 8.2574 14.951 9.84948 14.5254 11.3325C14.4792 11.4932 14.5719 11.6605 14.7324 11.7065C14.7605 11.7146 14.7883 11.7184 14.8161 11.7184C14.9474 11.7184 15.0686 11.6319 15.1065 11.4994C15.5805 9.84786 15.3152 8.07452 14.3786 6.63446C13.412 5.14905 11.8457 4.18081 10.081 3.97797C9.9183 3.95882 9.76526 4.07798 9.7461 4.24392C9.72695 4.40987 9.84591 4.55968 10.0121 4.57883Z" fill="#131318"/>
<path d="M10.4255 2.60175C12.5304 2.89432 14.4019 4.08394 15.5605 5.86576C16.6955 7.60926 17.0358 9.76269 16.4947 11.7738C16.4511 11.9351 16.5469 12.101 16.7082 12.1444C16.7344 12.1514 16.761 12.1548 16.787 12.1548C16.9203 12.1548 17.0427 12.0661 17.0788 11.931C17.6647 9.75422 17.2961 7.42316 16.0676 5.53589C14.8135 3.60729 12.7875 2.31947 10.5092 2.0027C10.3445 1.98073 10.1908 2.09505 10.1681 2.26059C10.1449 2.42593 10.2602 2.57876 10.4255 2.60175Z" fill="#131318"/>
</svg>
