<svg width="17" height="13" viewBox="0 0 17 13" fill="none" xmlns="http://www.w3.org/2000/svg">
<path d="M16.3183 0H2.77966C2.61444 0 2.48071 0.133728 2.48071 0.298945V1.93975C2.48071 2.10497 2.61444 2.2387 2.77966 2.2387C2.94487 2.2387 3.0786 2.10497 3.0786 1.93975V0.597889H16.0195V8.12751H14.7847C14.6197 8.12751 14.4857 8.26144 14.4857 8.42645C14.4857 8.59147 14.6197 8.7254 14.7847 8.7254H16.3185C16.4835 8.7254 16.6174 8.59147 16.6174 8.42645V0.298945C16.6172 0.133728 16.4835 0 16.3183 0Z" fill="#353442"/>
<path d="M14.0187 2.50598H0.298579C0.133362 2.50598 -0.000366211 2.63971 -0.000366211 2.80493V11.7569C-0.000366211 11.9219 0.133362 12.0559 0.298579 12.0559H14.0187C14.1838 12.0559 14.3177 11.9219 14.3177 11.7569V2.80493C14.3177 2.63971 14.1838 2.50598 14.0187 2.50598ZM13.7198 3.10387V9.37653L11.4891 9.37613L9.50229 7.72735C9.39327 7.63687 9.23543 7.63588 9.12482 7.72357L7.19125 9.26632L4.26159 6.03931C4.20499 5.97693 4.12487 5.94146 4.04077 5.94126C4.04057 5.94126 4.04037 5.94126 4.04017 5.94126C3.95627 5.94126 3.87635 5.97653 3.81975 6.03831L0.597523 9.55889V3.10387H13.7198ZM0.597523 11.458V10.4444L4.03937 6.68384L6.93714 9.87597C7.04357 9.99296 7.22194 10.0071 7.3449 9.90885L9.30758 8.34278L11.1901 9.90527C11.2439 9.94991 11.3113 9.97422 11.3811 9.97422L13.7196 9.97482V11.4584H0.597523V11.458Z" fill="#353442"/>
<path d="M11.2313 6.27989C11.8846 6.27989 12.4163 5.74836 12.4163 5.09487C12.4163 4.44157 11.8846 3.90985 11.2313 3.90985C10.578 3.90985 10.0463 4.44138 10.0463 5.09487C10.0463 5.74836 10.578 6.27989 11.2313 6.27989ZM11.2313 4.50774C11.5551 4.50774 11.8184 4.77101 11.8184 5.09487C11.8184 5.41873 11.5551 5.682 11.2313 5.682C10.9074 5.682 10.6442 5.41853 10.6442 5.09487C10.6442 4.77121 10.9074 4.50774 11.2313 4.50774Z" fill="#353442"/>
</svg>
