<svg width="20" height="20" viewBox="0 0 20 20" fill="none" xmlns="http://www.w3.org/2000/svg">
<path d="M12.9397 7.73999L6.89969 12.54C6.77969 12.64 6.73969 12.84 6.85969 12.96C6.91969 13.04 6.99969 13.08 7.09969 13.08C7.15969 13.08 7.23969 13.06 7.27969 13.02L13.3197 8.21999C13.4397 8.11999 13.4797 7.91999 13.3597 7.79999C13.2597 7.65999 13.0797 7.63999 12.9397 7.73999Z" fill="#131318"/>
<path d="M8.51982 9.88001C8.59982 9.88001 8.67982 9.88001 8.75982 9.86001C9.57982 9.74001 10.1598 8.96001 10.0198 8.12001C9.95982 7.72001 9.73982 7.36001 9.41982 7.12001C9.09982 6.88001 8.69982 6.78001 8.29982 6.84001C7.89982 6.90001 7.53982 7.12001 7.29982 7.44001C7.05982 7.76001 6.95982 8.16001 7.01982 8.56001C7.13982 9.34001 7.79982 9.88001 8.51982 9.88001ZM8.37982 7.46001C8.41982 7.46001 8.47982 7.44001 8.51982 7.44001C8.95982 7.44001 9.35982 7.76001 9.41982 8.22001C9.49982 8.72001 9.15982 9.18001 8.65982 9.26001C8.15982 9.34001 7.69982 9.00001 7.61982 8.50001C7.53982 8.00001 7.89982 7.54001 8.37982 7.46001Z" fill="#131318"/>
<path d="M11.7197 10.8801C10.8797 10.8801 10.1997 11.5601 10.1997 12.4001C10.1997 13.2401 10.8797 13.9201 11.7197 13.9201C12.5597 13.9201 13.2397 13.2401 13.2397 12.4001C13.2197 11.5601 12.5397 10.8801 11.7197 10.8801ZM11.7197 13.3001C11.2197 13.3001 10.7997 12.8801 10.7997 12.3801C10.7997 11.8801 11.2197 11.4601 11.7197 11.4601C12.2197 11.4601 12.6397 11.8801 12.6397 12.3801C12.6197 12.9001 12.2197 13.3001 11.7197 13.3001Z" fill="#131318"/>
<path d="M19.1998 10.18C19.1998 10.16 19.2198 10.12 19.2198 10.1C19.2198 9.24 18.3198 8.8 17.5398 8.42C16.9798 8.14 16.3798 7.84 16.2198 7.48C16.0598 7.1 16.2798 6.48 16.4998 5.9C16.7998 5.08 17.0998 4.24 16.5398 3.68C15.9798 3.12 15.1798 3.32 14.3798 3.5C13.8198 3.62 13.2398 3.76 12.8598 3.6C12.4798 3.44 12.1598 2.94 11.8598 2.46C11.4198 1.78 10.9398 1 10.0998 1C9.25976 1 8.77976 1.78 8.35976 2.48C8.05976 2.98 7.75976 3.48 7.37976 3.64C6.99976 3.8 6.39976 3.66 5.83976 3.52C5.03976 3.32 4.21976 3.12 3.67976 3.66C3.11976 4.22 3.39976 5.06 3.65976 5.88C3.85976 6.48 4.03976 7.08 3.87976 7.48C3.71976 7.86 3.15976 8.14 2.61976 8.42C1.85976 8.82 0.999756 9.26 0.999756 10.1C0.999756 10.12 0.999756 10.16 1.01976 10.18C1.01976 10.2 0.999756 10.24 0.999756 10.26C0.999756 11.1 1.85976 11.56 2.61976 11.94C3.15976 12.22 3.71976 12.5 3.87976 12.88C4.03976 13.26 3.83976 13.88 3.65976 14.48C3.39976 15.3 3.11976 16.14 3.67976 16.7C4.23976 17.26 5.05976 17.04 5.83976 16.84C6.39976 16.7 6.99976 16.56 7.37976 16.72C7.75976 16.88 8.05976 17.38 8.35976 17.88C8.77976 18.58 9.25976 19.36 10.0998 19.36C10.9398 19.36 11.4398 18.58 11.8598 17.9C12.1598 17.42 12.4798 16.92 12.8598 16.76C13.2598 16.6 13.8198 16.72 14.3798 16.86C15.1598 17.04 15.9798 17.24 16.5398 16.68C17.0998 16.12 16.7998 15.28 16.4998 14.46C16.2798 13.86 16.0598 13.26 16.2198 12.88C16.3798 12.5 16.9598 12.22 17.5398 11.94C18.3198 11.54 19.2198 11.1 19.2198 10.26C19.2198 10.22 19.1998 10.2 19.1998 10.18ZM17.2598 11.4C16.5998 11.74 15.8998 12.08 15.6598 12.66C15.3998 13.26 15.6798 13.98 15.9198 14.68C16.1598 15.34 16.3998 15.98 16.0998 16.26C15.7798 16.58 15.1598 16.44 14.4998 16.28C13.8398 16.12 13.1798 15.98 12.5998 16.22C12.0398 16.46 11.6798 17.02 11.3398 17.58C10.9598 18.18 10.5998 18.76 10.0798 18.76C9.57976 18.76 9.21976 18.18 8.83976 17.56C8.49976 16.98 8.13976 16.4 7.57976 16.16C6.99976 15.92 6.31976 16.08 5.65976 16.26C4.99976 16.42 4.37976 16.58 4.05976 16.28C3.75976 15.98 3.95976 15.34 4.17976 14.68C4.39976 13.98 4.63976 13.26 4.37976 12.68C4.13976 12.1 3.47976 11.76 2.83976 11.44C2.17976 11.1 1.55976 10.78 1.55976 10.28C1.55976 10.26 1.55976 10.22 1.53976 10.2C1.53976 10.18 1.55976 10.14 1.55976 10.12C1.55976 9.64 2.17976 9.32 2.83976 8.96C3.47976 8.64 4.13976 8.3 4.37976 7.72C4.61976 7.12 4.39976 6.4 4.17976 5.72C3.95976 5.04 3.75976 4.4 4.05976 4.12C4.37976 3.8 4.99976 3.96 5.65976 4.14C6.31976 4.3 6.99976 4.48 7.57976 4.24C8.13976 4 8.49976 3.42 8.83976 2.84C9.21976 2.22 9.55976 1.64 10.0798 1.64C10.5998 1.64 10.9598 2.22 11.3398 2.82C11.6998 3.38 12.0598 3.94 12.5998 4.18C13.1798 4.42 13.8398 4.26 14.4998 4.12C15.1598 3.96 15.7798 3.82 16.0998 4.14C16.3998 4.42 16.1598 5.06 15.9198 5.72C15.6598 6.42 15.3998 7.14 15.6598 7.74C15.8998 8.32 16.5998 8.66 17.2598 9C17.9598 9.34 18.5998 9.68 18.5998 10.16C18.5998 10.18 18.5998 10.22 18.6198 10.24C18.6198 10.26 18.5998 10.3 18.5998 10.32C18.6198 10.72 17.9598 11.06 17.2598 11.4Z" fill="#131318"/>
</svg>
