<svg width="20" height="20" viewBox="0 0 20 20" fill="none" xmlns="http://www.w3.org/2000/svg">
    <path d="M14.0225 4.61678C13.153 3.83877 12.0311 3.44589 10.8685 3.51054C9.70383 3.57519 8.63405 4.08945 7.85622 4.95846C6.25045 6.75283 6.40388 9.51918 8.19826 11.1249C9.03043 11.8694 10.0709 12.2356 11.1083 12.2356C12.3083 12.2356 13.5035 11.7453 14.3648 10.7829C15.9703 8.9889 15.8169 6.22255 14.0225 4.61678ZM13.9527 10.4147C12.5505 11.982 10.1341 12.1161 8.56664 10.7131C6.99918 9.31049 6.86528 6.89429 8.2677 5.32702C8.94718 4.56779 9.88176 4.11855 10.8989 4.06219C10.9712 4.05832 11.0431 4.05629 11.1149 4.05629C12.0541 4.05629 12.9485 4.39723 13.654 5.02845C15.2214 6.43124 15.3553 8.84744 13.9527 10.4147Z"
          fill="#131318"/>
    <path d="M8.75851 5.75782C8.65666 5.87164 8.66642 6.04626 8.78006 6.14793C8.83293 6.19508 8.89868 6.21829 8.96425 6.21829C9.04014 6.21829 9.11566 6.18735 9.17018 6.12619C10.1324 5.05108 11.7894 4.95935 12.8645 5.92119C12.9781 6.02305 13.1525 6.01329 13.2546 5.89964C13.3563 5.78581 13.3465 5.6112 13.2329 5.50953C11.9306 4.34434 9.92351 4.45596 8.75851 5.75782Z"
          fill="#131318"/>
    <path d="M16.9854 7.51499C16.8916 5.95085 16.1945 4.51712 15.0223 3.47737C13.8501 2.43762 12.3445 1.9182 10.7789 2.01048C9.21496 2.10423 7.78104 2.80139 6.74147 3.97358C4.65736 6.32329 4.80729 9.89381 7.03341 12.0637L6.0806 13.1508L5.77503 12.8799C5.66101 12.7786 5.48714 12.7889 5.38583 12.9024L2.07042 16.6073C2.02142 16.6619 1.99637 16.7337 2.00042 16.8068C2.00448 16.8799 2.03745 16.9486 2.09197 16.9975L3.13356 17.9296C3.18642 17.9768 3.25218 18 3.31775 18C3.39364 18 3.46915 17.9689 3.52367 17.9079L6.84351 14.1981C6.89251 14.1434 6.91774 14.0714 6.9135 13.9979C6.90927 13.9248 6.87593 13.8559 6.82104 13.8073L6.4941 13.5174L7.44637 12.431C8.49312 13.2777 9.77821 13.7321 11.1221 13.7321C11.2412 13.7321 11.3611 13.7285 11.481 13.7213C13.045 13.6273 14.4789 12.9302 15.5187 11.758C16.5584 10.5858 17.0791 9.07913 16.9854 7.51499ZM3.2962 17.3336L2.66646 16.77L5.61423 13.4759L6.24674 14.0368L3.2962 17.3336ZM15.1052 11.3915C14.1634 12.4533 12.8645 13.0847 11.4479 13.1696C10.0315 13.2569 8.66625 12.7826 7.6044 11.8411C5.41254 9.89694 5.21085 6.53197 7.15498 4.34011C8.09674 3.27826 9.39565 2.64686 10.8123 2.56194C10.9209 2.55531 11.0292 2.55218 11.1373 2.55218C12.4366 2.55218 13.6755 3.02113 14.6559 3.89069C15.7178 4.83245 16.3492 6.13136 16.4341 7.54796C16.5188 8.96475 16.0467 10.3298 15.1052 11.3915Z"
          fill="#131318"/>
</svg>