<svg width="15" height="16" viewBox="0 0 15 16" fill="none" xmlns="http://www.w3.org/2000/svg">
<path d="M12.0225 2.61678C11.1529 1.83877 10.031 1.44589 8.8684 1.51054C7.70377 1.57519 6.63399 2.08945 5.85616 2.95846C4.25039 4.75283 4.40382 7.51918 6.1982 9.12495C7.03037 9.86944 8.07086 10.2356 9.10821 10.2356C10.3082 10.2356 11.5034 9.7453 12.3647 8.78291C13.9703 6.9889 13.8168 4.22255 12.0225 2.61678ZM11.9527 8.41471C10.5504 9.98198 8.13403 10.1161 6.56658 8.7131C4.99912 7.31049 4.86522 4.89429 6.26764 3.32702C6.94711 2.56779 7.88169 2.11855 8.89879 2.06219C8.97118 2.05832 9.04301 2.05629 9.11485 2.05629C10.054 2.05629 10.9485 2.39723 11.6539 3.02845C13.2214 4.43124 13.3553 6.84744 11.9527 8.41471Z" fill="white"/>
<path d="M6.75857 3.75782C6.65672 3.87164 6.66648 4.04626 6.78012 4.14793C6.83299 4.19508 6.89874 4.21829 6.96431 4.21829C7.0402 4.21829 7.11572 4.18735 7.17024 4.12619C8.13245 3.05108 9.78942 2.95935 10.8645 3.92119C10.9782 4.02305 11.1526 4.01329 11.2546 3.89964C11.3563 3.78581 11.3466 3.6112 11.2329 3.50953C9.93069 2.34434 7.92358 2.45596 6.75857 3.75782Z" fill="white"/>
<path d="M14.9854 5.51499C14.8916 3.95085 14.1945 2.51712 13.0223 1.47737C11.8501 0.437617 10.3445 -0.0817988 8.77891 0.0104803C7.21496 0.104233 5.78104 0.801391 4.74147 1.97358C2.65736 4.32329 2.80729 7.89381 5.03341 10.0637L4.0806 11.1508L3.77503 10.8799C3.66101 10.7786 3.48714 10.7889 3.38583 10.9024L0.0704171 14.6073C0.0214226 14.6619 -0.00362725 14.7337 0.000424927 14.8068C0.0044771 14.8799 0.0374472 14.9486 0.0919674 14.9975L1.13356 15.9296C1.18642 15.9768 1.25218 16 1.31775 16C1.39364 16 1.46915 15.9689 1.52367 15.9079L4.84351 12.1981C4.89251 12.1434 4.91774 12.0714 4.9135 11.9979C4.90927 11.9248 4.87593 11.8559 4.82104 11.8073L4.4941 11.5174L5.44637 10.431C6.49312 11.2777 7.77821 11.7321 9.12206 11.7321C9.24123 11.7321 9.36114 11.7285 9.48104 11.7213C11.045 11.6273 12.4789 10.9302 13.5187 9.75799C14.5584 8.58581 15.0791 7.07913 14.9854 5.51499ZM1.2962 15.3336L0.666455 14.77L3.61423 11.4759L4.24674 12.0368L1.2962 15.3336ZM13.1052 9.39145C12.1634 10.4533 10.8645 11.0847 9.44789 11.1696C8.03147 11.2569 6.66625 10.7826 5.6044 9.84106C3.41254 7.89694 3.21085 4.53197 5.15498 2.34011C6.09674 1.27826 7.39565 0.646856 8.81225 0.561945C8.92092 0.555314 9.02923 0.552183 9.13735 0.552183C10.4366 0.552183 11.6755 1.02113 12.6559 1.89069C13.7178 2.83245 14.3492 4.13136 14.4341 5.54796C14.5188 6.96475 14.0467 8.32978 13.1052 9.39145Z" fill="white"/>
</svg>
