<svg width="14" height="16" viewBox="0 0 14 16" fill="none" xmlns="http://www.w3.org/2000/svg">
<path d="M6.79907 8.51166C3.05006 8.51166 0 11.5615 0 15.3105C0 15.4757 0.133729 15.6095 0.298948 15.6095H13.2978C13.463 15.6095 13.5967 15.4757 13.5967 15.3105C13.5965 11.5615 10.5473 8.51166 6.79907 8.51166ZM10.4339 15.0116H3.23561V10.2396C3.70157 9.91133 4.21417 9.64527 4.76184 9.45414V12.0325C4.76184 12.1977 4.89557 12.3314 5.06079 12.3314H8.55349C8.71871 12.3314 8.85244 12.1977 8.85244 12.0325V9.45972C9.42423 9.66101 9.95755 9.94402 10.4389 10.2944C10.4361 10.3109 10.4337 10.3275 10.4337 10.3448V15.0116H10.4339ZM8.25454 9.28314V11.7333H5.35973V9.27936C5.82191 9.16914 6.30361 9.10955 6.79907 9.10955C7.3003 9.10955 7.78759 9.17034 8.25454 9.28314ZM2.63772 10.7189V15.0116H0.604871C0.685985 13.3124 1.45508 11.7917 2.63772 10.7189ZM11.0318 15.0116V10.7853C12.1732 11.8539 12.9124 13.3474 12.9915 15.0116H11.0318Z" fill="#353442"/>
<path d="M6.6851 7.83721C8.84629 7.83721 10.6045 6.0796 10.6045 3.9194C10.6045 1.75821 8.84629 0 6.6851 0C4.52371 0 2.7655 1.75821 2.7655 3.9194C2.7653 6.0798 4.52371 7.83721 6.6851 7.83721ZM6.6851 0.597895C8.08219 0.597895 9.27837 1.46624 9.76805 2.69053C9.2415 2.45496 8.37954 2.00594 7.82768 1.7052C7.74398 1.65956 7.64313 1.65677 7.55683 1.69743C7.54348 1.7038 6.21396 2.33259 5.3504 2.69252L5.26829 2.7268C4.62496 2.99566 4.20802 3.16924 3.42976 3.25873C3.73688 1.74286 5.07976 0.597895 6.6851 0.597895ZM3.36599 3.86699C4.31445 3.77332 4.79436 3.57302 5.49888 3.27846L5.58059 3.24438C6.29189 2.94782 7.30951 2.47409 7.67542 2.3025C8.13022 2.54763 9.47528 3.26212 9.96296 3.40661C9.98907 3.57422 10.0066 3.74442 10.0066 3.9192C10.0066 5.74996 8.51666 7.23912 6.6851 7.23912C4.85355 7.23912 3.3634 5.74976 3.3634 3.9192C3.3632 3.90187 3.36559 3.88473 3.36599 3.86699Z" fill="#353442"/>
</svg>
