<svg width="20" height="20" viewBox="0 0 20 20" fill="none" xmlns="http://www.w3.org/2000/svg">
<path d="M0 4C0 1.79086 1.79086 0 4 0H16.0002C18.2093 0 20.0002 1.79086 20.0002 4V16C20.0002 18.2091 18.2093 20 16.0002 20H4C1.79086 20 0 18.2091 0 16V4Z" fill="#E30D13"/>
<path d="M16.9861 7.22055L15.4906 3.16691C15.4538 3.06719 15.3507 3 15.2344 3H4.76564C4.64933 3 4.54615 3.06719 4.50942 3.16691L3.01386 7.22055C3.00468 7.24544 3 7.27147 3 7.29766V16.756C3 16.8907 3.12082 17 3.27009 17H16.7299C16.879 17 17 16.8907 17 16.756V7.29766C17 7.27147 16.9953 7.24544 16.9861 7.22055ZM16.3916 7.15206C15.8379 7.51792 15.2189 7.6915 14.4547 7.6915C13.7631 7.6915 13.0956 7.4971 12.5135 7.13205V3.48804H15.0397L16.3916 7.15206ZM8.02684 3.48804H11.9732V7.13254C11.3916 7.49726 10.7241 7.69167 10.0323 7.69167C9.31389 7.69167 8.62391 7.48165 8.02684 7.0878V3.48804V3.48804ZM4.96028 3.48804H7.48667V7.0878C6.8896 7.48165 6.1998 7.69167 5.48119 7.69167C4.80399 7.69167 4.15741 7.51467 3.59761 7.18167L4.96028 3.48804ZM3.54017 16.512V7.72046C4.13058 8.02028 4.79211 8.1797 5.48119 8.1797C6.29559 8.1797 7.07812 7.95114 7.75676 7.51662C8.43539 7.95114 9.21792 8.1797 10.0323 8.1797C10.8197 8.1797 11.5801 7.96594 12.2434 7.55973C12.9073 7.96594 13.6675 8.1797 14.4545 8.1797C15.2165 8.1797 15.8759 8.0193 16.4598 7.69703V16.512H3.54017Z" fill="white"/>
<path d="M12.6658 9.33105H7.33381C7.18454 9.33105 7.06372 9.44021 7.06372 9.57507V14.0535C7.06372 14.1882 7.18454 14.2975 7.33381 14.2975H12.6658C12.8149 14.2975 12.9359 14.1882 12.9359 14.0535V9.57507C12.9359 9.44021 12.8149 9.33105 12.6658 9.33105ZM7.60389 9.81909H9.7572V13.8094H7.60389V9.81909ZM12.3958 13.8094H10.2972V9.81909H12.3956V13.8094H12.3958Z" fill="white"/>
</svg>
