<svg width="20" height="20" viewBox="0 0 20 20" fill="none" xmlns="http://www.w3.org/2000/svg">
<path d="M17.4802 6.17055L15.8248 1.20448C15.7842 1.08231 15.67 1 15.5412 1H3.95394C3.82519 1 3.71099 1.08231 3.67034 1.20448L2.01498 6.17055C2.00482 6.20104 1.99963 6.23293 1.99963 6.26501V17.8523C1.99963 18.0173 2.13336 18.1513 2.29858 18.1513H17.1966C17.3616 18.1513 17.4955 18.0173 17.4955 17.8523V6.26501C17.4955 6.23293 17.4903 6.20104 17.4802 6.17055ZM16.8221 6.08664C16.2093 6.53486 15.5241 6.74751 14.6783 6.74751C13.9128 6.74751 13.174 6.50935 12.5297 6.06213V1.59789H15.3258L16.8221 6.08664ZM7.56359 1.59789H11.9316V6.06273C11.2878 6.50955 10.5491 6.74771 9.78336 6.74771C8.98816 6.74771 8.22446 6.49042 7.56359 6.00792V1.59789ZM4.16937 1.59789H6.9657V6.00792C6.30484 6.49042 5.54133 6.74771 4.74594 6.74771C3.99638 6.74771 3.28071 6.53088 2.6611 6.12292L4.16937 1.59789ZM2.59752 17.5534V6.78299C3.25102 7.15029 3.98323 7.3456 4.74594 7.3456C5.64736 7.3456 6.5135 7.06559 7.26465 6.53327C8.0158 7.06559 8.88194 7.3456 9.78336 7.3456C10.6549 7.3456 11.4965 7.08372 12.2307 6.58608C12.9655 7.08372 13.807 7.3456 14.6781 7.3456C15.5215 7.3456 16.2513 7.14909 16.8976 6.75429V17.5534H2.59752Z" fill="#353442"/>
<path d="M12.6984 8.75623H6.79663C6.63141 8.75623 6.49768 8.88995 6.49768 9.05517V14.5416C6.49768 14.7066 6.63141 14.8405 6.79663 14.8405H12.6984C12.8634 14.8405 12.9973 14.7066 12.9973 14.5416V9.05517C12.9973 8.88995 12.8634 8.75623 12.6984 8.75623ZM7.09557 9.35412H9.47896V14.2427H7.09557V9.35412ZM12.3994 14.2427H10.0766V9.35412H12.3992V14.2427H12.3994Z" fill="#353442"/>
</svg>
