<svg width="56" height="56" viewBox="0 0 56 56" fill="none" xmlns="http://www.w3.org/2000/svg">
<circle cx="27.9998" cy="28" r="24" fill="#E31E24"/>
<path d="M23.5074 44.4831C25.3108 45.493 27.0869 46.0002 28.7415 46.0002C30.1265 45.9998 31.4263 45.6441 32.5832 44.93L36.8473 42.2996C37.001 42.2048 37.1108 42.0533 37.1526 41.8772C37.1943 41.7017 37.1639 41.5166 37.0691 41.3628L33.373 35.3725C33.2782 35.2191 33.1262 35.1094 32.9506 35.0676C32.7737 35.0263 32.5895 35.0563 32.4362 35.1511L28.1399 37.8028C27.4793 38.2102 26.6319 38.3404 25.8166 38.1612C25.0014 37.9816 24.3054 37.5088 23.9071 36.8628L18.0679 27.3996C17.2236 26.0313 17.6491 24.2312 19.0165 23.3869C19.0165 23.3869 19.017 23.3869 19.017 23.3864L23.4761 20.6335C23.796 20.4362 23.8949 20.017 23.6975 19.6972L20.001 13.7082C19.8036 13.3884 19.384 13.2881 19.0646 13.4864L14.6091 16.2365C9.64317 19.3016 9.81738 27.3475 15.0337 35.803C17.425 39.6801 20.4347 42.7628 23.5074 44.4831ZM15.3245 17.3943L19.2007 15.0021L22.1827 19.8328L18.3024 22.2282C18.3015 22.2287 18.3011 22.2291 18.3006 22.2296C16.2963 23.4685 15.672 26.1076 16.9101 28.1137L22.7493 37.5764C23.3396 38.5341 24.3513 39.2314 25.5245 39.49C26.6818 39.7436 27.8963 39.5517 28.8549 38.9601L32.5718 36.6659L35.5534 41.4975L31.8682 43.7709C29.177 45.4313 26.1977 44.4287 24.1725 43.295C21.2985 41.6853 18.4639 38.7709 16.1919 35.088C11.3966 27.3148 11.04 20.0388 15.3245 17.3943Z" fill="white"/>
<path d="M28.0746 20.8535C30.2768 20.9837 32.2258 22.1152 33.4225 23.9584C34.5667 25.7151 34.8421 27.8677 34.1775 29.8648C34.0586 30.2214 34.2514 30.607 34.608 30.725C34.6792 30.749 34.7514 30.7599 34.823 30.7599C35.1084 30.7599 35.3738 30.5798 35.4686 30.2944C36.2653 27.9018 35.935 25.3213 34.5635 23.2162C33.1508 21.0395 30.7545 19.6481 28.1549 19.4943C27.7761 19.4784 27.4576 19.7583 27.4354 20.1335C27.4132 20.5092 27.6995 20.8313 28.0746 20.8535Z" fill="white"/>
<path d="M29.027 15.8023C32.5929 16.212 35.7582 18.1687 37.7112 21.1697C39.6035 24.0791 40.1398 27.6613 39.182 30.9981C39.0782 31.3597 39.2868 31.7362 39.648 31.8396C39.711 31.8578 39.7736 31.8664 39.8362 31.8664C40.1316 31.8664 40.4042 31.6718 40.4895 31.3737C41.5561 27.6577 40.9591 23.6676 38.8518 20.4275C36.6769 17.0853 33.1527 14.9067 29.1822 14.4503C28.8161 14.4072 28.4717 14.6754 28.4286 15.0487C28.3855 15.4221 28.6532 15.7592 29.027 15.8023Z" fill="white"/>
<path d="M29.9574 11.3539C34.6932 12.0122 38.9042 14.6889 41.5111 18.698C44.0648 22.6209 44.8306 27.4662 43.6129 31.9911C43.5149 32.354 43.7304 32.7274 44.0934 32.8249C44.1523 32.8408 44.2122 32.8485 44.2708 32.8485C44.5706 32.8485 44.846 32.6489 44.9272 32.345C46.2456 27.4471 45.4163 22.2022 42.652 17.9558C39.8302 13.6164 35.2717 10.7188 30.1456 10.0061C29.775 9.95663 29.4293 10.2139 29.378 10.5863C29.3258 10.9583 29.5853 11.3022 29.9574 11.3539Z" fill="white"/>
</svg>
