<svg width="20" height="20" viewBox="0 0 20 20" fill="none" xmlns="http://www.w3.org/2000/svg">
<path d="M18.5205 13.2259C18.5205 13.1559 18.4505 13.0959 18.4405 13.0659C17.9856 12.3382 17.4225 11.6841 16.7705 11.1259L16.4705 10.8259L16.4005 10.756C16.4805 10.636 16.6105 10.4559 16.8205 10.1859L17.3305 9.52594C18.5305 7.91594 18.8805 7.05593 18.6205 6.32593L18.4705 6.03595C18.2789 5.77059 17.9987 5.58258 17.6805 5.50595C17.4085 5.4237 17.1215 5.40318 16.8405 5.44592H14.7305C14.6177 5.43104 14.5034 5.43104 14.3905 5.44592C14.2441 5.45823 14.1014 5.49901 13.9705 5.56595L13.8505 5.64594C13.7214 5.72651 13.6065 5.82786 13.5105 5.94592C13.4164 6.06846 13.3391 6.203 13.2805 6.34595C13.0825 6.85358 12.852 7.34792 12.5905 7.82593V7.47592C12.5905 7.32592 12.5905 7.17595 12.5905 7.00595C12.5914 6.81813 12.5747 6.63061 12.5405 6.44592C12.5102 6.29327 12.4598 6.14534 12.3905 6.00595C12.2826 5.74923 12.0973 5.5325 11.8605 5.38593C11.6857 5.27604 11.4927 5.19818 11.2905 5.15595C10.8794 5.07011 10.4605 5.02655 10.0405 5.02594C9.25769 4.94676 8.46714 5.04942 7.7305 5.32593C7.5033 5.4486 7.30007 5.61121 7.13051 5.80594C7.03068 5.92999 6.94979 6.06816 6.89051 6.21594C6.78474 6.01422 6.63001 5.8423 6.44051 5.71594C6.34498 5.65463 6.24465 5.60112 6.14051 5.55594C6.01328 5.51007 5.88295 5.47329 5.75051 5.44592H3.44051C3.1968 5.43354 2.95375 5.48084 2.73244 5.58365C2.51113 5.68646 2.31823 5.84172 2.17051 6.03595V6.12595C2.05592 6.31953 1.99709 6.541 2.00051 6.76593C2.00639 6.97225 2.05047 7.17569 2.13051 7.36594C2.42761 8.10542 2.76136 8.82967 3.13051 9.53595C3.51051 10.2359 3.83051 10.7959 4.13051 11.2259C4.43051 11.6559 4.69051 12.0659 4.99051 12.4459C5.29051 12.8259 5.48051 13.0859 5.58051 13.1959C5.6632 13.2991 5.75345 13.3961 5.85051 13.4859L6.03051 13.6559C6.23523 13.8569 6.45596 14.0408 6.69051 14.2059C6.97267 14.4096 7.26651 14.5966 7.57051 14.7659C7.9585 14.9896 8.37587 15.1579 8.8105 15.2659C9.25827 15.3969 9.72434 15.4543 10.1905 15.4359H11.1905C11.3999 15.425 11.6049 15.3725 11.7938 15.2815C11.9826 15.1905 12.1515 15.0628 12.2905 14.9059L12.3805 14.786C12.466 14.6583 12.527 14.5159 12.5605 14.3659C12.591 14.2786 12.6112 14.188 12.6205 14.0959C12.6905 14.1859 12.7705 14.2659 12.8605 14.3659C13.0889 14.6161 13.3437 14.8408 13.6205 15.036L13.7705 15.1259C13.9668 15.2356 14.1748 15.3228 14.3905 15.3859C14.5834 15.4531 14.7863 15.4869 14.9905 15.4859H15.2005H17.0805C17.43 15.5037 17.7772 15.4204 18.0805 15.2459C18.237 15.1605 18.375 15.045 18.4865 14.9059C18.5981 14.7669 18.681 14.6072 18.7305 14.4359C18.7809 14.2053 18.7809 13.9665 18.7305 13.7359C18.694 13.554 18.6227 13.3808 18.5205 13.2259ZM7.71051 7.63593C7.71652 7.75585 7.71652 7.87602 7.71051 7.99594L7.5905 7.78595L7.53051 7.65595L7.71051 7.63593ZM17.7105 14.1059C17.6958 14.1525 17.6712 14.1954 17.6384 14.2317C17.6056 14.2679 17.5654 14.2967 17.5205 14.3159C17.3829 14.3911 17.2269 14.4258 17.0705 14.4159H15.0705C14.9289 14.4471 14.7822 14.4471 14.6405 14.4159C14.5019 14.3727 14.3678 14.3158 14.2405 14.2459L14.0905 14.1559C13.8968 14.0084 13.7161 13.8444 13.5505 13.6659C13.3505 13.4459 13.1705 13.2459 13.0305 13.0659C12.8915 12.9014 12.7338 12.7538 12.5605 12.6259C12.5035 12.5733 12.4347 12.535 12.36 12.5141C12.2852 12.4933 12.2066 12.4905 12.1305 12.506H12.0605C12.0125 12.5367 11.9687 12.5736 11.9305 12.6159C11.8674 12.6816 11.8136 12.7557 11.7705 12.8359C11.7108 12.9634 11.6671 13.0977 11.6405 13.2359C11.5974 13.4328 11.5806 13.6346 11.5905 13.8359C11.6002 13.9056 11.6002 13.9763 11.5905 14.0459C11.5761 14.0948 11.556 14.1418 11.5305 14.1859C11.4237 14.2914 11.2806 14.3522 11.1305 14.3559H10.2405C9.86254 14.3754 9.48396 14.3315 9.1205 14.2259C8.77016 14.1351 8.43375 13.9972 8.1205 13.8159C7.8405 13.6559 7.57051 13.4859 7.33051 13.3159C7.14282 13.179 6.96257 13.0321 6.79052 12.8759L6.60051 12.6859L6.39051 12.4559C6.30051 12.3559 6.1205 12.126 5.8405 11.756C5.5605 11.386 5.29051 11.0059 5.03051 10.5959C4.77051 10.1859 4.4505 9.59592 4.0905 8.97592C3.7305 8.35592 3.3905 7.61594 3.0905 6.89594C3.06188 6.82933 3.04498 6.7583 3.04052 6.68594C3.03215 6.64638 3.03215 6.60551 3.04052 6.56595V6.51593C3.09895 6.46152 3.1687 6.42075 3.24479 6.39655C3.32087 6.37234 3.40137 6.3653 3.4805 6.37595H5.58051L5.76052 6.42593C5.8042 6.43751 5.84504 6.45793 5.88051 6.48593C5.96419 6.54747 6.02982 6.63035 6.07051 6.72592C6.17051 6.98592 6.29051 7.24594 6.42051 7.52594L6.7305 8.14594L6.86051 8.37595C6.98676 8.64823 7.13039 8.91208 7.29052 9.16592C7.39664 9.35401 7.52053 9.53148 7.66051 9.69592C7.75425 9.80888 7.86174 9.90968 7.9805 9.99594C8.05538 10.0542 8.14587 10.089 8.24051 10.0959C8.30978 10.1102 8.38123 10.1102 8.4505 10.0959C8.4883 10.042 8.52174 9.98517 8.55051 9.92593C8.60087 9.81133 8.63456 9.69011 8.65052 9.56595C8.65052 9.41595 8.65051 9.20592 8.72051 8.94592C8.75327 8.61339 8.75327 8.27845 8.72051 7.94592C8.71482 7.75747 8.69139 7.56998 8.65052 7.38593C8.63067 7.26258 8.59713 7.14185 8.55051 7.02594V6.93594C8.38308 6.74808 8.15099 6.63022 7.90052 6.60593C7.83052 6.60593 7.84052 6.53593 7.90052 6.42593C7.97787 6.32765 8.07719 6.24887 8.19051 6.19592C8.78265 6.01568 9.40397 5.9512 10.0205 6.00595C10.3562 6.00941 10.6908 6.04285 11.0205 6.10593C11.1101 6.12631 11.1949 6.16366 11.2705 6.21594C11.3434 6.25513 11.4001 6.3189 11.4305 6.39594C11.4661 6.47269 11.4929 6.55318 11.5105 6.63593C11.5226 6.75228 11.5226 6.86958 11.5105 6.98593C11.5105 7.13593 11.5105 7.27592 11.5105 7.41592C11.5105 7.55592 11.5105 7.72593 11.5105 7.95593C11.5105 8.18593 11.5105 8.39594 11.5105 8.58594C11.5105 8.77594 11.5105 8.74595 11.5105 8.90595V9.27594C11.502 9.3791 11.502 9.48278 11.5105 9.58594C11.5178 9.69012 11.545 9.79193 11.5905 9.88593C11.6372 9.96064 11.6984 10.0252 11.7705 10.0759H11.9005C11.9005 10.0759 12.0105 10.0759 12.1005 9.99594L12.3905 9.72592C12.5374 9.56702 12.6712 9.39648 12.7905 9.21594C12.9505 8.97594 13.1205 8.70593 13.3105 8.38593C13.6295 7.83202 13.9037 7.25353 14.1305 6.65595C14.1512 6.60922 14.1781 6.56549 14.2105 6.52594L14.2905 6.44592H14.3905H16.9405C17.1024 6.4151 17.2686 6.4151 17.4305 6.44592C17.5189 6.46405 17.5994 6.50953 17.6605 6.57593L17.7105 6.65595C17.8305 6.98595 17.4405 7.73595 16.5605 8.90595C16.4405 9.07595 16.2705 9.29595 16.0605 9.56595C15.7946 9.87303 15.5632 10.2084 15.3705 10.5659C15.3272 10.6689 15.3145 10.7822 15.334 10.8922C15.3535 11.0021 15.4044 11.1042 15.4805 11.1859C15.6724 11.41 15.8795 11.6205 16.1005 11.8159C16.6698 12.3061 17.162 12.8792 17.5605 13.5159L17.6105 13.6159C17.6407 13.6791 17.6609 13.7466 17.6705 13.8159C17.6877 13.9156 17.6843 14.0177 17.6605 14.1159L17.7105 14.1059Z" fill="#131318"/>
</svg>
