<svg width="17" height="11" viewBox="0 0 17 11" fill="none" xmlns="http://www.w3.org/2000/svg">
<path d="M16.5203 8.22592C16.5203 8.15592 16.4503 8.09595 16.4403 8.06595C15.9853 7.33823 15.4222 6.68406 14.7703 6.12595L14.4703 5.82593L14.4003 5.75595C14.4803 5.63595 14.6103 5.45594 14.8203 5.18594L15.3303 4.52594C16.5303 2.91594 16.8803 2.05593 16.6203 1.32593L16.4703 1.03595C16.2787 0.770592 15.9984 0.582584 15.6803 0.505951C15.4082 0.423704 15.1212 0.403178 14.8403 0.445923H12.7303C12.6174 0.431039 12.5031 0.431039 12.3903 0.445923C12.2438 0.458226 12.1011 0.499013 11.9703 0.565949L11.8503 0.645936C11.7212 0.726505 11.6063 0.827861 11.5103 0.945923C11.4162 1.06846 11.3388 1.203 11.2803 1.34595C11.0823 1.85358 10.8518 2.34792 10.5903 2.82593V2.47592C10.5903 2.32592 10.5903 2.17595 10.5903 2.00595C10.5912 1.81813 10.5744 1.63061 10.5403 1.44592C10.5099 1.29327 10.4595 1.14534 10.3903 1.00595C10.2823 0.749231 10.0971 0.532496 9.86028 0.385926C9.68543 0.276042 9.49241 0.19818 9.29027 0.155945C8.87913 0.0701108 8.46028 0.0265459 8.04027 0.0259405C7.25744 -0.0532364 6.46689 0.0494187 5.73026 0.325928C5.50306 0.448602 5.29982 0.611209 5.13027 0.805939C5.03043 0.929986 4.94955 1.06816 4.89026 1.21594C4.7845 1.01422 4.62977 0.842299 4.44027 0.715943C4.34473 0.654626 4.2444 0.601116 4.14026 0.555939C4.01304 0.510066 3.88271 0.47329 3.75026 0.445923H1.44027C1.19655 0.433544 0.953507 0.480836 0.732197 0.583649C0.510886 0.686463 0.31799 0.84172 0.170261 1.03595V1.12595C0.0556745 1.31953 -0.00315776 1.541 0.000263197 1.76593C0.00614655 1.97225 0.0502294 2.17569 0.130268 2.36594C0.427366 3.10542 0.761113 3.82967 1.13027 4.53595C1.51027 5.23595 1.83027 5.79592 2.13027 6.22592C2.43027 6.65592 2.69027 7.06592 2.99027 7.44592C3.29027 7.82592 3.48027 8.08592 3.58027 8.19592C3.66296 8.29914 3.75321 8.39609 3.85027 8.48593L4.03026 8.65595C4.23499 8.85687 4.45572 9.0408 4.69027 9.20593C4.97242 9.40961 5.26626 9.59659 5.57027 9.76593C5.95825 9.98963 6.37563 10.1579 6.81026 10.2659C7.25803 10.3969 7.7241 10.4543 8.19027 10.4359H9.19027C9.39961 10.425 9.60468 10.3725 9.79354 10.2815C9.98239 10.1905 10.1512 10.0628 10.2903 9.90595L10.3803 9.78595C10.4658 9.65831 10.5268 9.51588 10.5603 9.36594C10.5908 9.2786 10.6109 9.18799 10.6203 9.09595C10.6903 9.18595 10.7703 9.26594 10.8603 9.36594C11.0886 9.61612 11.3434 9.84078 11.6203 10.036L11.7703 10.1259C11.9665 10.2356 12.1745 10.3228 12.3903 10.3859C12.5832 10.4531 12.786 10.4869 12.9903 10.4859H13.2003H15.0803C15.4298 10.5037 15.777 10.4204 16.0803 10.2459C16.2367 10.1605 16.3747 10.045 16.4863 9.90595C16.5978 9.76692 16.6808 9.60719 16.7303 9.43594C16.7807 9.20533 16.7807 8.96655 16.7303 8.73593C16.6938 8.55399 16.6225 8.3808 16.5203 8.22592ZM5.71027 2.63593C5.71627 2.75585 5.71627 2.87602 5.71027 2.99594L5.59026 2.78595L5.53026 2.65595L5.71027 2.63593ZM15.7103 9.10593C15.6955 9.15253 15.671 9.19542 15.6382 9.23166C15.6054 9.2679 15.5652 9.29666 15.5203 9.31595C15.3827 9.3911 15.2267 9.42575 15.0703 9.41593H13.0703C12.9286 9.44711 12.7819 9.44711 12.6403 9.41593C12.5016 9.37272 12.3676 9.31579 12.2403 9.24594L12.0903 9.15595C11.8966 9.00838 11.7159 8.84443 11.5503 8.66593C11.3503 8.44592 11.1703 8.24595 11.0303 8.06595C10.8913 7.90145 10.7336 7.75378 10.5603 7.62595C10.5032 7.57332 10.4345 7.53499 10.3597 7.51413C10.285 7.49327 10.2063 7.49047 10.1303 7.50595H10.0603C10.0122 7.53666 9.9685 7.57364 9.93026 7.61594C9.86715 7.68164 9.81332 7.75566 9.77025 7.83594C9.71053 7.96338 9.66689 8.09773 9.64028 8.23593C9.59716 8.43284 9.58033 8.63461 9.59026 8.83594C9.59998 8.9056 9.59998 8.97627 9.59026 9.04593C9.5759 9.09482 9.55576 9.14183 9.53026 9.18594C9.42342 9.29145 9.28038 9.35223 9.13027 9.35593H8.24027C7.8623 9.37542 7.48372 9.33147 7.12026 9.22592C6.76991 9.13513 6.43351 8.99723 6.12026 8.81595C5.84026 8.65595 5.57026 8.48595 5.33027 8.31595C5.14258 8.17898 4.96233 8.0321 4.79027 7.87595L4.60027 7.68594L4.39026 7.45593C4.30026 7.35593 4.12026 7.12595 3.84026 6.75595C3.56026 6.38595 3.29026 6.00595 3.03026 5.59595C2.77026 5.18595 2.45026 4.59592 2.09026 3.97592C1.73026 3.35592 1.39026 2.61594 1.09026 1.89594C1.06163 1.82933 1.04473 1.7583 1.04027 1.68594C1.03191 1.64638 1.03191 1.60551 1.04027 1.56595V1.51593C1.0987 1.46152 1.16846 1.42075 1.24454 1.39655C1.32062 1.37234 1.40113 1.3653 1.48026 1.37595H3.58027L3.76027 1.42593C3.80396 1.43751 3.8448 1.45793 3.88027 1.48593C3.96395 1.54747 4.02957 1.63035 4.07027 1.72592C4.17027 1.98592 4.29026 2.24594 4.42026 2.52594L4.73026 3.14594L4.86026 3.37595C4.98651 3.64823 5.13015 3.91208 5.29027 4.16592C5.39639 4.35401 5.52029 4.53148 5.66027 4.69592C5.75401 4.80888 5.8615 4.90968 5.98026 4.99594C6.05513 5.05424 6.14562 5.08905 6.24027 5.09595C6.30954 5.11023 6.38099 5.11023 6.45026 5.09595C6.48805 5.04203 6.5215 4.98517 6.55027 4.92593C6.60063 4.81133 6.63431 4.69011 6.65027 4.56595C6.65027 4.41595 6.65026 4.20592 6.72026 3.94592C6.75302 3.61339 6.75302 3.27845 6.72026 2.94592C6.71458 2.75747 6.69115 2.56998 6.65027 2.38593C6.63043 2.26258 6.59688 2.14185 6.55027 2.02594V1.93594C6.38284 1.74808 6.15074 1.63022 5.90027 1.60593C5.83027 1.60593 5.84027 1.53593 5.90027 1.42593C5.97763 1.32765 6.07695 1.24887 6.19027 1.19592C6.78241 1.01568 7.40373 0.951196 8.02027 1.00595C8.35592 1.00941 8.69057 1.04285 9.02025 1.10593C9.10984 1.12631 9.1947 1.16366 9.27025 1.21594C9.3432 1.25513 9.39989 1.3189 9.43026 1.39594C9.46582 1.47269 9.49267 1.55318 9.51027 1.63593C9.52239 1.75228 9.52239 1.86958 9.51027 1.98593C9.51027 2.13593 9.51027 2.27592 9.51027 2.41592C9.51027 2.55592 9.51027 2.72593 9.51027 2.95593C9.51027 3.18593 9.51027 3.39594 9.51027 3.58594C9.51027 3.77594 9.51027 3.74595 9.51027 3.90595V4.27594C9.50178 4.3791 9.50178 4.48278 9.51027 4.58594C9.51759 4.69012 9.54473 4.79193 9.59026 4.88593C9.63697 4.96064 9.69817 5.02525 9.77025 5.07593H9.90026C9.90026 5.07593 10.0103 5.07594 10.1003 4.99594L10.3903 4.72592C10.5372 4.56702 10.671 4.39648 10.7903 4.21594C10.9503 3.97594 11.1203 3.70593 11.3103 3.38593C11.6292 2.83202 11.9034 2.25353 12.1303 1.65595C12.151 1.60922 12.1779 1.56549 12.2103 1.52594L12.2903 1.44592H12.3903H14.9403C15.1021 1.4151 15.2684 1.4151 15.4303 1.44592C15.5187 1.46405 15.5991 1.50953 15.6603 1.57593L15.7103 1.65595C15.8303 1.98595 15.4403 2.73595 14.5603 3.90595C14.4403 4.07595 14.2703 4.29595 14.0603 4.56595C13.7944 4.87303 13.563 5.20837 13.3703 5.56595C13.3269 5.66891 13.3143 5.78217 13.3338 5.89215C13.3533 6.00214 13.4042 6.10417 13.4803 6.18594C13.6721 6.41003 13.8793 6.62053 14.1003 6.81595C14.6695 7.30609 15.1617 7.87917 15.5603 8.51593L15.6103 8.61594C15.6405 8.67912 15.6607 8.74659 15.6703 8.81595C15.6875 8.91558 15.6841 9.01767 15.6603 9.11594L15.7103 9.10593Z" fill="#131318"/>
</svg>
